<svg width="24" height="24" viewBox="0 0 24 24" fill="none" xmlns="http://www.w3.org/2000/svg">
<path d="M19.0418 21.8073L19.0417 21.8073L19.033 21.8162C18.7646 22.0915 18.3868 22.2147 17.9294 22.2172C15.5493 22.1422 13.2424 20.968 11.2525 19.6765C7.99774 17.3062 5.05659 14.3998 3.21898 10.9273C2.47422 9.38488 1.716 7.62377 1.7873 6.1544L1.78797 6.14055L1.78813 6.12668C1.79426 5.59421 1.93871 5.21185 2.17235 4.99801L2.18452 4.98688L2.19618 4.97522L5.26488 1.90806C5.44177 1.7641 5.52473 1.78294 5.53213 1.78462C5.53229 1.78465 5.53242 1.78468 5.53251 1.7847C5.55712 1.78972 5.65709 1.82438 5.78639 2.01506L8.2474 6.68177C8.35379 6.92219 8.29901 7.18347 8.10788 7.38059L6.97199 8.5159L6.93078 8.55709L6.89643 8.60414C6.75628 8.79612 6.63891 9.05449 6.63596 9.36462L6.63503 9.46355L6.65977 9.55934C7.15197 11.4646 8.6077 13.1453 9.80864 14.2471C9.9798 14.4041 10.1654 14.5821 10.3611 14.7699C10.7749 15.1668 11.2339 15.6072 11.6978 15.9845C12.3973 16.5537 13.2219 17.0829 14.1963 17.2937C14.3404 17.3321 14.5262 17.3652 14.7253 17.3561C14.9337 17.3466 15.2289 17.2862 15.4767 17.0558L15.489 17.0443L15.5009 17.0323L16.7837 15.7277C17.1039 15.5031 17.4059 15.509 17.5193 15.5748L17.6939 15.6761H17.7142L22.0152 18.2153C22.1573 18.3068 22.2044 18.4139 22.2148 18.4933C22.2257 18.5774 22.2012 18.6684 22.1281 18.7458L19.0418 21.8073Z" stroke="#4839C3" stroke-width="1.5"/>
</svg>
