<svg width="24" height="24" viewBox="0 0 24 24" fill="none" xmlns="http://www.w3.org/2000/svg">
<path d="M5.4 5.11111L5 3H3L5.4 5.11111ZM5.4 5.11111H21L17 13.5556H7M5.4 5.11111L7 13.5556M7 13.5556L4.707 15.9759C4.077 16.6409 4.523 17.7778 5.414 17.7778H17M17 17.7778C16.4696 17.7778 15.9609 18.0002 15.5858 18.3961C15.2107 18.792 15 19.329 15 19.8889C15 20.4488 15.2107 20.9858 15.5858 21.3817C15.9609 21.7776 16.4696 22 17 22C17.5304 22 18.0391 21.7776 18.4142 21.3817C18.7893 20.9858 19 20.4488 19 19.8889C19 19.329 18.7893 18.792 18.4142 18.3961C18.0391 18.0002 17.5304 17.7778 17 17.7778ZM9 19.8889C9 20.4488 8.78929 20.9858 8.41421 21.3817C8.03914 21.7776 7.53043 22 7 22C6.46957 22 5.96086 21.7776 5.58579 21.3817C5.21071 20.9858 5 20.4488 5 19.8889C5 19.329 5.21071 18.792 5.58579 18.3961C5.96086 18.0002 6.46957 17.7778 7 17.7778C7.53043 17.7778 8.03914 18.0002 8.41421 18.3961C8.78929 18.792 9 19.329 9 19.8889Z" stroke="#4839C3" stroke-width="1.5" stroke-linecap="round" stroke-linejoin="round"/>
</svg>
