<svg width="24" height="24" viewBox="0 0 24 24" fill="none" xmlns="http://www.w3.org/2000/svg">
<path fill-rule="evenodd" clip-rule="evenodd" d="M21.6 6.39999C21.8122 6.39999 22.0156 6.3157 22.1657 6.16567C22.3157 6.01564 22.4 5.81216 22.4 5.59999C22.4 5.38781 22.3157 5.18433 22.1657 5.0343C22.0156 4.88427 21.8122 4.79999 21.6 4.79999H2.39998C2.1878 4.79999 1.98432 4.88427 1.83429 5.0343C1.68426 5.18433 1.59998 5.38781 1.59998 5.59999C1.59998 5.81216 1.68426 6.01564 1.83429 6.16567C1.98432 6.3157 2.1878 6.39999 2.39998 6.39999H21.6ZM2.39998 11.2C2.1878 11.2 1.98432 11.2843 1.83429 11.4343C1.68426 11.5843 1.59998 11.7878 1.59998 12C1.59998 12.2122 1.68426 12.4156 1.83429 12.5657C1.98432 12.7157 2.1878 12.8 2.39998 12.8H21.6C21.8122 12.8 22.0156 12.7157 22.1657 12.5657C22.3157 12.4156 22.4 12.2122 22.4 12C22.4 11.7878 22.3157 11.5843 22.1657 11.4343C22.0156 11.2843 21.8122 11.2 21.6 11.2H2.39998ZM2.39998 17.6C2.1878 17.6 1.98432 17.6843 1.83429 17.8343C1.68426 17.9843 1.59998 18.1878 1.59998 18.4C1.59998 18.6122 1.68426 18.8156 1.83429 18.9657C1.98432 19.1157 2.1878 19.2 2.39998 19.2H21.6C21.8122 19.2 22.0156 19.1157 22.1657 18.9657C22.3157 18.8156 22.4 18.6122 22.4 18.4C22.4 18.1878 22.3157 17.9843 22.1657 17.8343C22.0156 17.6843 21.8122 17.6 21.6 17.6H2.39998Z" fill="#4839C3"/>
</svg>
