<svg width="23" height="23" viewBox="0 0 23 23" fill="none" xmlns="http://www.w3.org/2000/svg">
<path d="M10.9085 22.3605C10.0618 22.1512 9.30668 21.6681 8.75909 20.9855C8.2115 20.3028 7.90167 19.4582 7.87716 18.5812C7.84927 17.7196 7.85326 16.8579 7.87716 15.9963C7.87716 15.6516 7.76562 15.5594 7.43898 15.5674C6.64229 15.5875 5.84561 15.5674 5.04892 15.5674C2.71862 15.5434 0.854375 13.6477 0.961928 11.4234C0.979672 10.8705 1.10859 10.3268 1.34089 9.82535C1.5732 9.32387 1.90408 8.87493 2.31357 8.50564C2.72306 8.13635 3.20267 7.85436 3.72345 7.67668C4.24424 7.499 4.79541 7.42931 5.3437 7.47183C5.62254 7.47183 5.78187 7.57603 5.81374 7.8726C6.07267 10.3173 8.11616 11.9084 10.327 12.3853C11.2193 12.5777 12.1354 12.4775 13.0237 12.6578C13.8438 12.8006 14.6004 13.1938 15.1907 13.784C15.4306 14.0182 15.6212 14.2986 15.7512 14.6084C15.8812 14.9182 15.948 15.2512 15.9476 15.5875C15.9476 16.5293 15.9476 17.4711 15.9476 18.3929C15.9237 20.4609 14.5574 22.2122 12.4979 22.4006C11.9704 22.4882 11.4311 22.4746 10.9085 22.3605Z" fill="url(#paint0_linear_5810_2780)"/>
<path d="M7.901 5.80457C7.95279 5.21143 7.83329 4.46198 8.00856 3.72055C8.19509 2.72815 8.74718 1.8432 9.55437 1.24273C10.3616 0.642266 11.3643 0.37057 12.3621 0.481994C13.3598 0.593417 14.279 1.07975 14.9356 1.84369C15.5923 2.60763 15.938 3.59285 15.9037 4.60225C15.9037 5.42785 15.9037 6.25744 15.9037 7.08704C15.9037 7.41568 15.9914 7.53591 16.3339 7.52789C17.1904 7.52789 18.0508 7.52789 18.9072 7.52789C19.9637 7.52789 20.9769 7.95013 21.7239 8.70173C22.471 9.45332 22.8907 10.4727 22.8907 11.5356C22.8907 12.5985 22.471 13.6179 21.7239 14.3695C20.9769 15.1211 19.9637 15.5433 18.9072 15.5433C18.7638 15.5433 18.6204 15.5433 18.477 15.5433C18.2141 15.5433 18.0787 15.4712 18.0349 15.1746C17.7321 12.4814 15.4058 10.9024 13.0516 10.5457C12.1912 10.4175 11.3068 10.5457 10.4544 10.2772C9.73347 10.0801 9.07942 9.68941 8.56225 9.14701C8.32912 8.88529 8.15078 8.57901 8.03785 8.24643C7.92493 7.91386 7.87974 7.56181 7.90499 7.21128C7.91694 6.77444 7.901 6.37367 7.901 5.80457Z" fill="url(#paint1_linear_5810_2780)"/>
<defs>
<linearGradient id="paint0_linear_5810_2780" x1="23.0249" y1="-1.42407" x2="2.52488" y2="20.5759" gradientUnits="userSpaceOnUse">
<stop stop-color="#4839C3"/>
<stop offset="1" stop-color="#3CE682"/>
</linearGradient>
<linearGradient id="paint1_linear_5810_2780" x1="15.3944" y1="0.457519" x2="3.02489" y2="15.0759" gradientUnits="userSpaceOnUse">
<stop stop-color="#4839C3"/>
<stop offset="1" stop-color="#3CE682"/>
</linearGradient>
</defs>
</svg>
