<svg width="15" height="14" viewBox="0 0 15 14" fill="none" xmlns="http://www.w3.org/2000/svg">
<path d="M9.01633 5.97064C8.46924 5.4248 7.72736 5.11816 6.95382 5.11816C6.18028 5.11816 5.4384 5.4248 4.89131 5.97064L2.82814 8.02931C2.28104 8.57539 1.97368 9.31603 1.97368 10.0883C1.97368 10.8606 2.28104 11.6012 2.82814 12.1473C3.37524 12.6934 4.11726 13.0002 4.89098 13.0002C5.6647 13.0002 6.40672 12.6934 6.95382 12.1473L7.98508 11.118" stroke="#7A769D" stroke-width="2" stroke-linecap="round" stroke-linejoin="round"/>
<path d="M6.95383 8.02929C7.50092 8.57513 8.24279 8.88176 9.01634 8.88176C9.78988 8.88176 10.5318 8.57513 11.0788 8.02929L13.142 5.97062C13.6891 5.42454 13.9965 4.6839 13.9965 3.91162C13.9965 3.13935 13.6891 2.3987 13.142 1.85262C12.5949 1.30654 11.8529 0.999756 11.0792 0.999756C10.3055 0.999756 9.56344 1.30654 9.01634 1.85262L7.98508 2.88195" stroke="#7A769D" stroke-width="2" stroke-linecap="round" stroke-linejoin="round"/>
</svg>
