<svg width="24" height="25" viewBox="0 0 24 25" fill="none" xmlns="http://www.w3.org/2000/svg">
<path fill-rule="evenodd" clip-rule="evenodd" d="M17.1465 3.25C16.82 2.09575 15.7588 1.25 14.5 1.25C13.2412 1.25 12.18 2.09575 11.8535 3.25L2.5 3.25C2.08579 3.25 1.75 3.58579 1.75 4C1.75 4.41421 2.08579 4.75 2.5 4.75L11.8535 4.75C12.18 5.90425 13.2412 6.75 14.5 6.75C15.7588 6.75 16.82 5.90425 17.1465 4.75L20.5 4.75C20.9142 4.75 21.25 4.41421 21.25 4C21.25 3.58579 20.9142 3.25 20.5 3.25L17.1465 3.25ZM14.5 2.75C15.1904 2.75 15.75 3.30964 15.75 4C15.75 4.69036 15.1904 5.25 14.5 5.25C13.8096 5.25 13.25 4.69036 13.25 4C13.25 3.30964 13.8096 2.75 14.5 2.75Z" fill="#A8A8A8"/>
<path fill-rule="evenodd" clip-rule="evenodd" d="M20.5 20.75C20.9142 20.75 21.25 20.4142 21.25 20C21.25 19.5858 20.9142 19.25 20.5 19.25H17.1465C16.82 18.0957 15.7588 17.25 14.5 17.25C13.2412 17.25 12.18 18.0957 11.8535 19.25H2.5C2.08579 19.25 1.75 19.5858 1.75 20C1.75 20.4142 2.08579 20.75 2.5 20.75H11.8535C12.18 21.9043 13.2412 22.75 14.5 22.75C15.7588 22.75 16.82 21.9043 17.1465 20.75H20.5ZM15.75 20C15.75 19.3096 15.1904 18.75 14.5 18.75C13.8096 18.75 13.25 19.3096 13.25 20C13.25 20.6904 13.8096 21.25 14.5 21.25C15.1904 21.25 15.75 20.6904 15.75 20Z" fill="#A8A8A8"/>
<path fill-rule="evenodd" clip-rule="evenodd" d="M1.75 12C1.75 11.5858 2.08579 11.25 2.5 11.25L5.85352 11.25C6.17998 10.0957 7.24122 9.25 8.5 9.25C9.75878 9.25 10.82 10.0957 11.1465 11.25H21.5C21.9142 11.25 22.25 11.5858 22.25 12C22.25 12.4142 21.9142 12.75 21.5 12.75H11.1465C10.82 13.9043 9.75878 14.75 8.5 14.75C7.24122 14.75 6.17998 13.9043 5.85352 12.75L2.5 12.75C2.08579 12.75 1.75 12.4142 1.75 12ZM7.25 12C7.25 12.6904 7.80964 13.25 8.5 13.25C9.19036 13.25 9.75 12.6904 9.75 12C9.75 11.3096 9.19036 10.75 8.5 10.75C7.80964 10.75 7.25 11.3096 7.25 12Z" fill="#A8A8A8"/>
</svg>
