<svg width="24" height="24" viewBox="0 0 24 24" fill="none" xmlns="http://www.w3.org/2000/svg">
<path d="M11.9999 11.3412C10.8938 11.3412 9.83302 10.9018 9.05088 10.1196C8.26875 9.33751 7.82935 8.2767 7.82935 7.17059C7.82935 6.06448 8.26875 5.00368 9.05088 4.22154C9.83302 3.4394 10.8938 3 11.9999 3C13.106 3 14.1669 3.4394 14.949 4.22154C15.7311 5.00368 16.1705 6.06448 16.1705 7.17059C16.1705 8.2767 15.7311 9.33751 14.949 10.1196C14.1669 10.9018 13.106 11.3412 11.9999 11.3412Z" stroke="#4839C3" stroke-width="1.5" stroke-linecap="round"/>
<path d="M4.54736 21V19.7579C4.54736 18.4402 5.07081 17.1765 6.00256 16.2447C6.93431 15.313 8.19803 14.7896 9.51572 14.7896H14.4841C15.8018 14.7896 17.0655 15.313 17.9972 16.2447C18.929 17.1765 19.4524 18.4402 19.4524 19.7579V21" stroke="#4839C3" stroke-width="1.5" stroke-linecap="round"/>
</svg>
