<svg width="360" height="256" viewBox="0 0 360 256" fill="none" xmlns="http://www.w3.org/2000/svg">
<path d="M-0.820312 0H359.18V255.881H-0.820312V0Z" fill="#F6F6F9"/>
<path d="M21.9502 40.4403H36.68V42.4403H21.9502V40.4403Z" fill="#1EBEBE"/>
<path d="M19.4951 35.4403H31.77V37.4403H19.4951V35.4403Z" fill="#1EBEBE"/>
<path d="M53.7653 41.0463L50.0829 34.0463C49.9884 33.8664 49.8311 33.713 49.6305 33.6053C49.43 33.4976 49.195 33.4402 48.9548 33.4403H45.2723V31.4403C45.2723 31.1751 45.143 30.9207 44.9128 30.7332C44.6826 30.5457 44.3704 30.4403 44.0449 30.4403H24.4051V32.4403H42.8174V44.9963C42.258 45.2609 41.7685 45.6131 41.3771 46.0326C40.9857 46.452 40.7 46.9305 40.5367 47.4403H32.8232C32.5244 46.4976 31.8139 45.6761 30.8248 45.1297C29.8357 44.5833 28.636 44.3495 27.4505 44.4722C26.2649 44.5949 25.175 45.0656 24.385 45.7961C23.595 46.5266 23.1592 47.4667 23.1592 48.4403C23.1592 49.4139 23.595 50.354 24.385 51.0845C25.175 51.815 26.2649 52.2858 27.4505 52.4084C28.636 52.5311 29.8357 52.2973 30.8248 51.7509C31.8139 51.2045 32.5244 50.383 32.8232 49.4403H40.5367C40.8037 50.2985 41.4144 51.0597 42.2721 51.6035C43.1298 52.1472 44.1856 52.4424 45.2723 52.4424C46.3591 52.4424 47.4149 52.1472 48.2726 51.6035C49.1303 51.0597 49.741 50.2985 50.008 49.4403H52.6373C52.9628 49.4403 53.275 49.335 53.5052 49.1474C53.7354 48.9599 53.8648 48.7055 53.8648 48.4403V41.4403C53.8648 41.3048 53.831 41.1708 53.7653 41.0463ZM28.0875 50.4403C27.602 50.4403 27.1273 50.323 26.7236 50.1032C26.3199 49.8835 26.0052 49.5711 25.8194 49.2057C25.6336 48.8402 25.585 48.4381 25.6797 48.0501C25.7744 47.6622 26.0083 47.3058 26.3516 47.0261C26.6949 46.7464 27.1324 46.5559 27.6086 46.4787C28.0848 46.4016 28.5784 46.4412 29.027 46.5925C29.4756 46.7439 29.859 47.0003 30.1288 47.3292C30.3985 47.6581 30.5425 48.0447 30.5425 48.4403C30.5418 48.9706 30.283 49.479 29.8227 49.8539C29.3625 50.2289 28.7384 50.4398 28.0875 50.4403ZM45.2723 35.4403H48.1447L50.7764 40.4403H45.2723V35.4403ZM45.2723 50.4403C44.7868 50.4403 44.3122 50.323 43.9084 50.1032C43.5047 49.8835 43.1901 49.5711 43.0042 49.2057C42.8184 48.8402 42.7698 48.4381 42.8645 48.0501C42.9593 47.6622 43.1931 47.3058 43.5364 47.0261C43.8797 46.7464 44.3172 46.5559 44.7934 46.4787C45.2696 46.4016 45.7632 46.4412 46.2118 46.5925C46.6604 46.7439 47.0438 47.0003 47.3136 47.3292C47.5833 47.6581 47.7273 48.0447 47.7273 48.4403C47.7267 48.9706 47.4678 49.479 47.0076 49.8539C46.5473 50.2289 45.9232 50.4398 45.2723 50.4403ZM51.4098 47.4403H50.008C49.7376 46.5837 49.126 45.8245 48.2689 45.2816C47.4119 44.7386 46.358 44.4428 45.2723 44.4403V42.4403H51.4098V47.4403Z" fill="#1EBEBE"/>
<path d="M45.2723 154.64V153.94C45.2723 150.803 39.4724 148.44 31.7699 148.44C24.0675 148.44 18.2676 150.803 18.2676 153.94V158.94C18.2676 161.553 22.2876 163.628 28.0875 164.253V164.94C28.0875 168.078 33.8874 170.44 41.5898 170.44C49.2923 170.44 55.0922 168.078 55.0922 164.94V159.94C55.0922 157.353 51.1949 155.278 45.2723 154.64ZM52.6372 159.94C52.6372 161.59 47.9114 163.44 41.5898 163.44C41.0221 163.44 40.4544 163.428 39.8867 163.39C43.2009 162.415 45.2723 160.815 45.2723 158.94V156.653C49.86 157.215 52.6372 158.728 52.6372 159.94ZM28.0875 162.215V159.253C29.3086 159.381 30.5387 159.443 31.7699 159.44C33.0011 159.443 34.2312 159.381 35.4524 159.253V162.215C34.2342 162.37 33.0028 162.445 31.7699 162.44C30.5371 162.445 29.3057 162.37 28.0875 162.215ZM42.8173 157.178V158.94C42.8173 159.99 40.9147 161.115 37.9074 161.803V158.878C39.8867 158.49 41.5592 157.903 42.8173 157.178ZM31.7699 150.44C38.0915 150.44 42.8173 152.29 42.8173 153.94C42.8173 155.59 38.0915 157.44 31.7699 157.44C25.4484 157.44 20.7226 155.59 20.7226 153.94C20.7226 152.29 25.4484 150.44 31.7699 150.44ZM20.7226 158.94V157.178C21.9807 157.903 23.6532 158.49 25.6325 158.878V161.803C22.6252 161.115 20.7226 159.99 20.7226 158.94ZM30.5425 164.94V164.415L31.7699 164.44C32.3735 164.44 32.9565 164.428 33.5191 164.403C34.1329 164.578 34.7773 164.728 35.4524 164.865V167.803C32.4451 167.115 30.5425 165.99 30.5425 164.94ZM37.9074 168.215V165.24C39.1284 165.371 40.3584 165.438 41.5898 165.44C42.821 165.443 44.0511 165.381 45.2723 165.253V168.215C42.8311 168.515 40.3485 168.515 37.9074 168.215ZM47.7273 167.803V164.878C49.7066 164.49 51.3791 163.903 52.6372 163.178V164.94C52.6372 165.99 50.7346 167.115 47.7273 167.803Z" fill="#1EBEBE"/>
<path d="M77.6184 40.4443V49.1243H78.9064V53.1563H77.4504V50.4403H70.7584V53.1563H69.3164V49.1243H70.0864C70.3944 48.5643 70.6931 47.9483 70.9824 47.2763C71.2718 46.595 71.5284 45.881 71.7524 45.1343C71.9764 44.3783 72.1631 43.6083 72.3124 42.8243C72.4711 42.031 72.5831 41.2376 72.6484 40.4443H77.6184ZM73.9224 41.7603C73.8758 42.2923 73.7824 42.8803 73.6424 43.5243C73.5024 44.159 73.3298 44.8123 73.1244 45.4843C72.9284 46.1563 72.7044 46.8096 72.4524 47.4443C72.2098 48.0696 71.9531 48.6296 71.6824 49.1243H76.1204V41.7603H73.9224ZM89.3629 45.4283C89.3629 46.203 89.2649 46.9076 89.0689 47.5423C88.8822 48.1676 88.5929 48.709 88.2009 49.1663C87.8182 49.6236 87.3329 49.9736 86.7449 50.2163C86.1662 50.459 85.4896 50.5803 84.7149 50.5803C83.9216 50.5803 83.2309 50.459 82.6429 50.2163C82.0642 49.9643 81.5789 49.6143 81.1869 49.1663C80.8042 48.709 80.5196 48.163 80.3329 47.5283C80.1462 46.8936 80.0529 46.189 80.0529 45.4143C80.0529 44.3876 80.2209 43.4916 80.5569 42.7263C80.8929 41.961 81.4062 41.3636 82.0969 40.9343C82.7969 40.505 83.6742 40.2903 84.7289 40.2903C85.7556 40.2903 86.6096 40.505 87.2909 40.9343C87.9816 41.3543 88.4996 41.9516 88.8449 42.7263C89.1902 43.4916 89.3629 44.3923 89.3629 45.4283ZM81.6489 45.4283C81.6489 46.231 81.7562 46.9216 81.9709 47.5003C82.1856 48.0696 82.5216 48.513 82.9789 48.8303C83.4362 49.1383 84.0149 49.2923 84.7149 49.2923C85.4242 49.2923 86.0029 49.1383 86.4509 48.8303C86.8989 48.513 87.2302 48.0696 87.4449 47.5003C87.6596 46.9216 87.7669 46.231 87.7669 45.4283C87.7669 44.2243 87.5242 43.2863 87.0389 42.6143C86.5629 41.933 85.7929 41.5923 84.7289 41.5923C84.0196 41.5923 83.4362 41.7463 82.9789 42.0543C82.5216 42.3623 82.1856 42.801 81.9709 43.3703C81.7562 43.9396 81.6489 44.6256 81.6489 45.4283ZM95.8051 41.6063C95.3104 41.6063 94.8671 41.695 94.4751 41.8723C94.0831 42.0403 93.7471 42.2923 93.4671 42.6283C93.1964 42.9643 92.9864 43.3703 92.8371 43.8463C92.6971 44.3223 92.6271 44.859 92.6271 45.4563C92.6271 46.2403 92.7437 46.9216 92.9771 47.5003C93.2104 48.0696 93.5604 48.5083 94.0271 48.8163C94.4937 49.1243 95.0817 49.2783 95.7911 49.2783C96.2204 49.2783 96.6311 49.241 97.0231 49.1663C97.4244 49.0823 97.8304 48.975 98.2411 48.8443V50.1463C97.8491 50.2956 97.4477 50.403 97.0371 50.4683C96.6264 50.543 96.1504 50.5803 95.6091 50.5803C94.5917 50.5803 93.7424 50.3703 93.0611 49.9503C92.3891 49.5303 91.8851 48.933 91.5491 48.1583C91.2131 47.3836 91.0451 46.4783 91.0451 45.4423C91.0451 44.6863 91.1477 43.9956 91.3531 43.3703C91.5677 42.7356 91.8757 42.1896 92.2771 41.7323C92.6784 41.275 93.1731 40.925 93.7611 40.6823C94.3584 40.4303 95.0444 40.3043 95.8191 40.3043C96.3231 40.3043 96.8177 40.3603 97.3031 40.4723C97.7884 40.575 98.2271 40.7243 98.6191 40.9203L98.0591 42.1803C97.7324 42.031 97.3777 41.9003 96.9951 41.7883C96.6217 41.667 96.2251 41.6063 95.8051 41.6063ZM103.754 50.4403H102.242V41.7463H99.2465V40.4443H106.75V41.7463H103.754V50.4403ZM113.529 50.4403L112.465 47.5563H108.601L107.537 50.4403H105.969L109.763 40.4023H111.331L115.111 50.4403H113.529ZM111.037 43.4263C111.009 43.3236 110.957 43.1696 110.883 42.9643C110.817 42.7496 110.752 42.535 110.687 42.3203C110.621 42.0963 110.57 41.9143 110.533 41.7743C110.486 41.961 110.43 42.1663 110.365 42.3903C110.309 42.605 110.253 42.8056 110.197 42.9923C110.141 43.1696 110.094 43.3143 110.057 43.4263L109.049 46.2403H112.045L111.037 43.4263ZM119.385 40.4443C120.234 40.4443 120.944 40.5236 121.513 40.6823C122.092 40.841 122.526 41.107 122.815 41.4803C123.114 41.8443 123.263 42.3296 123.263 42.9363C123.263 43.3283 123.193 43.6783 123.053 43.9863C122.913 44.285 122.708 44.537 122.437 44.7423C122.176 44.9383 121.849 45.069 121.457 45.1343V45.2043C121.858 45.2696 122.218 45.391 122.535 45.5683C122.852 45.7363 123.104 45.9836 123.291 46.3103C123.478 46.637 123.571 47.0616 123.571 47.5843C123.571 48.191 123.426 48.709 123.137 49.1383C122.857 49.5583 122.451 49.8803 121.919 50.1043C121.396 50.3283 120.771 50.4403 120.043 50.4403H116.459V40.4443H119.385ZM119.637 44.6163C120.421 44.6163 120.958 44.4903 121.247 44.2383C121.546 43.9863 121.695 43.613 121.695 43.1183C121.695 42.6143 121.518 42.255 121.163 42.0403C120.808 41.8256 120.244 41.7183 119.469 41.7183H117.971V44.6163H119.637ZM117.971 45.8483V49.1803H119.805C120.617 49.1803 121.182 49.0216 121.499 48.7043C121.816 48.387 121.975 47.967 121.975 47.4443C121.975 47.127 121.905 46.847 121.765 46.6043C121.625 46.3616 121.387 46.175 121.051 46.0443C120.724 45.9136 120.276 45.8483 119.707 45.8483H117.971ZM133.192 50.4403H131.414L127.158 45.3723V50.4403H125.646V40.4443H127.158V45.2883L131.33 40.4443H132.996L128.866 45.2883L133.192 50.4403ZM140.749 50.4403L139.685 47.5563H135.821L134.757 50.4403H133.189L136.983 40.4023H138.551L142.331 50.4403H140.749ZM138.257 43.4263C138.229 43.3236 138.178 43.1696 138.103 42.9643C138.038 42.7496 137.973 42.535 137.907 42.3203C137.842 42.0963 137.791 41.9143 137.753 41.7743C137.707 41.961 137.651 42.1663 137.585 42.3903C137.529 42.605 137.473 42.8056 137.417 42.9923C137.361 43.1696 137.315 43.3143 137.277 43.4263L136.269 46.2403H139.265L138.257 43.4263Z" fill="#383553"/>
<path d="M25.132 79.4443V88.3203H26.406V92.0723H25.202V89.4403H18.328V92.0723H17.124V88.3203H17.894C18.23 87.7416 18.5474 87.093 18.846 86.3743C19.154 85.6556 19.4247 84.9043 19.658 84.1203C19.8914 83.327 20.0827 82.5336 20.232 81.7403C20.3814 80.947 20.4747 80.1816 20.512 79.4443H25.132ZM21.618 80.5783C21.5807 81.1196 21.4874 81.731 21.338 82.4123C21.198 83.0936 21.016 83.7936 20.792 84.5123C20.5774 85.2216 20.3347 85.9076 20.064 86.5703C19.8027 87.233 19.5227 87.8163 19.224 88.3203H23.886V80.5783H21.618ZM34.4337 85.6743C34.4337 86.2996 34.3497 86.855 34.1817 87.3403C34.0231 87.8163 33.7897 88.2223 33.4817 88.5583C33.1831 88.8943 32.8144 89.151 32.3757 89.3283C31.9464 89.4963 31.4657 89.5803 30.9337 89.5803C30.4391 89.5803 29.9817 89.4963 29.5617 89.3283C29.1417 89.151 28.7777 88.8943 28.4697 88.5583C28.1617 88.2223 27.9191 87.8163 27.7417 87.3403C27.5737 86.855 27.4897 86.2996 27.4897 85.6743C27.4897 84.8436 27.6297 84.1436 27.9097 83.5743C28.1897 82.9956 28.5911 82.557 29.1137 82.2583C29.6364 81.9503 30.2571 81.7963 30.9757 81.7963C31.6571 81.7963 32.2544 81.9503 32.7677 82.2583C33.2904 82.557 33.6964 82.9956 33.9857 83.5743C34.2844 84.1436 34.4337 84.8436 34.4337 85.6743ZM28.7637 85.6743C28.7637 86.2623 28.8384 86.7756 28.9877 87.2143C29.1464 87.6436 29.3891 87.975 29.7157 88.2083C30.0424 88.4416 30.4577 88.5583 30.9617 88.5583C31.4657 88.5583 31.8811 88.4416 32.2077 88.2083C32.5344 87.975 32.7724 87.6436 32.9217 87.2143C33.0804 86.7756 33.1597 86.2623 33.1597 85.6743C33.1597 85.077 33.0804 84.5683 32.9217 84.1483C32.7631 83.7283 32.5204 83.4063 32.1937 83.1823C31.8764 82.949 31.4611 82.8323 30.9477 82.8323C30.1824 82.8323 29.6271 83.0843 29.2817 83.5883C28.9364 84.0923 28.7637 84.7876 28.7637 85.6743ZM39.3963 89.5803C38.7336 89.5803 38.141 89.445 37.6183 89.1743C37.105 88.9036 36.699 88.4836 36.4003 87.9143C36.111 87.345 35.9663 86.617 35.9663 85.7303C35.9663 84.8063 36.1203 84.055 36.4283 83.4763C36.7363 82.8976 37.1516 82.473 37.6743 82.2023C38.2063 81.9316 38.8083 81.7963 39.4803 81.7963C39.863 81.7963 40.2316 81.8383 40.5863 81.9223C40.941 81.997 41.2303 82.0903 41.4543 82.2023L41.0763 83.2243C40.8523 83.1403 40.591 83.061 40.2923 82.9863C39.9936 82.9116 39.7136 82.8743 39.4523 82.8743C38.9483 82.8743 38.533 82.9816 38.2063 83.1963C37.8796 83.411 37.637 83.7283 37.4783 84.1483C37.3196 84.5683 37.2403 85.091 37.2403 85.7163C37.2403 86.3136 37.3196 86.8223 37.4783 87.2423C37.637 87.6623 37.875 87.9796 38.1923 88.1943C38.5096 88.409 38.9063 88.5163 39.3823 88.5163C39.793 88.5163 40.1523 88.4743 40.4603 88.3903C40.7776 88.3063 41.067 88.2036 41.3283 88.0823V89.1743C41.0763 89.305 40.7963 89.403 40.4883 89.4683C40.1896 89.543 39.8256 89.5803 39.3963 89.5803ZM48.2929 82.9723H45.8429V89.4403H44.6249V82.9723H42.2029V81.9363H48.2929V82.9723ZM52.6131 81.8103C53.5277 81.8103 54.2044 82.011 54.6431 82.4123C55.0817 82.8136 55.3011 83.453 55.3011 84.3303V89.4403H54.4051L54.1671 88.3763H54.1111C53.8964 88.647 53.6724 88.8756 53.4391 89.0623C53.2151 89.2396 52.9537 89.3703 52.6551 89.4543C52.3657 89.5383 52.0111 89.5803 51.5911 89.5803C51.1431 89.5803 50.7371 89.501 50.3731 89.3423C50.0184 89.1836 49.7384 88.941 49.5331 88.6143C49.3277 88.2783 49.2251 87.8583 49.2251 87.3543C49.2251 86.6076 49.5191 86.0336 50.1071 85.6323C50.6951 85.2216 51.6004 84.9976 52.8231 84.9603L54.0971 84.9183V84.4703C54.0971 83.845 53.9617 83.411 53.6911 83.1683C53.4204 82.9256 53.0377 82.8043 52.5431 82.8043C52.1511 82.8043 51.7777 82.865 51.4231 82.9863C51.0684 83.0983 50.7371 83.229 50.4291 83.3783L50.0511 82.4543C50.3777 82.277 50.7651 82.1276 51.2131 82.0063C51.6611 81.8756 52.1277 81.8103 52.6131 81.8103ZM52.9771 85.8143C52.0437 85.8516 51.3951 86.001 51.0311 86.2623C50.6764 86.5236 50.4991 86.8923 50.4991 87.3683C50.4991 87.7883 50.6251 88.0963 50.8771 88.2923C51.1384 88.4883 51.4697 88.5863 51.8711 88.5863C52.5057 88.5863 53.0331 88.4136 53.4531 88.0683C53.8731 87.7136 54.0831 87.1723 54.0831 86.4443V85.7723L52.9771 85.8143ZM63.6527 83.8263C63.6527 84.293 63.5127 84.657 63.2327 84.9183C62.9527 85.1796 62.5934 85.357 62.1547 85.4503V85.5063C62.6214 85.5716 63.0274 85.7396 63.3727 86.0103C63.718 86.2716 63.8907 86.6823 63.8907 87.2423C63.8907 87.5596 63.83 87.8536 63.7087 88.1243C63.5967 88.395 63.4194 88.6283 63.1767 88.8243C62.934 89.0203 62.6214 89.1743 62.2387 89.2863C61.856 89.389 61.394 89.4403 60.8527 89.4403H57.6187V81.9363H60.8387C61.3707 81.9363 61.8467 81.997 62.2667 82.1183C62.696 82.2303 63.032 82.4263 63.2747 82.7063C63.5267 82.977 63.6527 83.3503 63.6527 83.8263ZM62.6167 87.2423C62.6167 86.813 62.4534 86.505 62.1267 86.3183C61.8 86.1316 61.3194 86.0383 60.6847 86.0383H58.8507V88.4463H60.7127C61.3287 88.4463 61.8 88.3576 62.1267 88.1803C62.4534 87.9936 62.6167 87.681 62.6167 87.2423ZM62.4067 83.9803C62.4067 83.6256 62.276 83.369 62.0147 83.2103C61.7627 83.0423 61.3474 82.9583 60.7687 82.9583H58.8507V85.0163H60.5447C61.1514 85.0163 61.6134 84.9323 61.9307 84.7643C62.248 84.5963 62.4067 84.335 62.4067 83.9803ZM70.1231 81.9363H71.4671L68.2611 85.5483L71.7331 89.4403H70.3051L66.9171 85.6323V89.4403H65.6851V81.9363H66.9171V85.5763L70.1231 81.9363ZM75.9373 81.8103C76.8519 81.8103 77.5286 82.011 77.9673 82.4123C78.4059 82.8136 78.6253 83.453 78.6253 84.3303V89.4403H77.7293L77.4913 88.3763H77.4353C77.2206 88.647 76.9966 88.8756 76.7633 89.0623C76.5393 89.2396 76.2779 89.3703 75.9793 89.4543C75.6899 89.5383 75.3353 89.5803 74.9153 89.5803C74.4673 89.5803 74.0613 89.501 73.6973 89.3423C73.3426 89.1836 73.0626 88.941 72.8573 88.6143C72.6519 88.2783 72.5493 87.8583 72.5493 87.3543C72.5493 86.6076 72.8433 86.0336 73.4313 85.6323C74.0193 85.2216 74.9246 84.9976 76.1473 84.9603L77.4213 84.9183V84.4703C77.4213 83.845 77.2859 83.411 77.0153 83.1683C76.7446 82.9256 76.3619 82.8043 75.8673 82.8043C75.4753 82.8043 75.1019 82.865 74.7473 82.9863C74.3926 83.0983 74.0613 83.229 73.7533 83.3783L73.3753 82.4543C73.7019 82.277 74.0893 82.1276 74.5373 82.0063C74.9853 81.8756 75.4519 81.8103 75.9373 81.8103ZM76.3013 85.8143C75.3679 85.8516 74.7193 86.001 74.3553 86.2623C74.0006 86.5236 73.8233 86.8923 73.8233 87.3683C73.8233 87.7883 73.9493 88.0963 74.2013 88.2923C74.4626 88.4883 74.7939 88.5863 75.1953 88.5863C75.8299 88.5863 76.3573 88.4136 76.7773 88.0683C77.1973 87.7136 77.4073 87.1723 77.4073 86.4443V85.7723L76.3013 85.8143ZM90.1516 81.9363V88.4043H91.2436V92.0443H90.0536V89.4403H84.8316V92.0443H83.6556V88.4043H84.2576C84.687 87.807 85.0416 87.1583 85.3216 86.4583C85.611 85.749 85.8256 85.0116 85.9656 84.2463C86.115 83.4716 86.1943 82.7016 86.2036 81.9363H90.1516ZM87.2956 82.9023C87.2583 83.537 87.1603 84.195 87.0016 84.8763C86.843 85.5483 86.6376 86.1923 86.3856 86.8083C86.143 87.4243 85.8583 87.9563 85.5316 88.4043H88.9616V82.9023H87.2956ZM99.2384 85.6743C99.2384 86.2996 99.1544 86.855 98.9864 87.3403C98.8277 87.8163 98.5944 88.2223 98.2864 88.5583C97.9877 88.8943 97.6191 89.151 97.1804 89.3283C96.7511 89.4963 96.2704 89.5803 95.7384 89.5803C95.2437 89.5803 94.7864 89.4963 94.3664 89.3283C93.9464 89.151 93.5824 88.8943 93.2744 88.5583C92.9664 88.2223 92.7237 87.8163 92.5464 87.3403C92.3784 86.855 92.2944 86.2996 92.2944 85.6743C92.2944 84.8436 92.4344 84.1436 92.7144 83.5743C92.9944 82.9956 93.3957 82.557 93.9184 82.2583C94.4411 81.9503 95.0617 81.7963 95.7804 81.7963C96.4617 81.7963 97.0591 81.9503 97.5724 82.2583C98.0951 82.557 98.5011 82.9956 98.7904 83.5743C99.0891 84.1436 99.2384 84.8436 99.2384 85.6743ZM93.5684 85.6743C93.5684 86.2623 93.6431 86.7756 93.7924 87.2143C93.9511 87.6436 94.1937 87.975 94.5204 88.2083C94.8471 88.4416 95.2624 88.5583 95.7664 88.5583C96.2704 88.5583 96.6857 88.4416 97.0124 88.2083C97.3391 87.975 97.5771 87.6436 97.7264 87.2143C97.8851 86.7756 97.9644 86.2623 97.9644 85.6743C97.9644 85.077 97.8851 84.5683 97.7264 84.1483C97.5677 83.7283 97.3251 83.4063 96.9984 83.1823C96.6811 82.949 96.2657 82.8323 95.7524 82.8323C94.9871 82.8323 94.4317 83.0843 94.0864 83.5883C93.7411 84.0923 93.5684 84.7876 93.5684 85.6743ZM107.852 79.4443C108.682 79.4443 109.378 79.5236 109.938 79.6823C110.507 79.841 110.932 80.1023 111.212 80.4663C111.501 80.8303 111.646 81.3156 111.646 81.9223C111.646 82.3143 111.571 82.6643 111.422 82.9723C111.282 83.271 111.067 83.523 110.778 83.7283C110.498 83.9243 110.152 84.0596 109.742 84.1343V84.2043C110.162 84.2696 110.54 84.391 110.876 84.5683C111.221 84.7456 111.492 84.9976 111.688 85.3243C111.884 85.651 111.982 86.0756 111.982 86.5983C111.982 87.205 111.842 87.723 111.562 88.1523C111.282 88.5723 110.88 88.8943 110.358 89.1183C109.844 89.333 109.228 89.4403 108.51 89.4403H104.996V79.4443H107.852ZM108.104 83.7003C108.962 83.7003 109.55 83.565 109.868 83.2943C110.185 83.0143 110.344 82.6036 110.344 82.0623C110.344 81.5116 110.148 81.1196 109.756 80.8863C109.373 80.6436 108.757 80.5223 107.908 80.5223H106.256V83.7003H108.104ZM106.256 84.7503V88.3763H108.272C109.158 88.3763 109.774 88.2036 110.12 87.8583C110.465 87.513 110.638 87.0603 110.638 86.5003C110.638 86.1456 110.558 85.8376 110.4 85.5763C110.25 85.315 109.994 85.1143 109.63 84.9743C109.275 84.825 108.79 84.7503 108.174 84.7503H106.256ZM116.775 81.8103C117.69 81.8103 118.366 82.011 118.805 82.4123C119.244 82.8136 119.463 83.453 119.463 84.3303V89.4403H118.567L118.329 88.3763H118.273C118.058 88.647 117.834 88.8756 117.601 89.0623C117.377 89.2396 117.116 89.3703 116.817 89.4543C116.528 89.5383 116.173 89.5803 115.753 89.5803C115.305 89.5803 114.899 89.501 114.535 89.3423C114.18 89.1836 113.9 88.941 113.695 88.6143C113.49 88.2783 113.387 87.8583 113.387 87.3543C113.387 86.6076 113.681 86.0336 114.269 85.6323C114.857 85.2216 115.762 84.9976 116.985 84.9603L118.259 84.9183V84.4703C118.259 83.845 118.124 83.411 117.853 83.1683C117.582 82.9256 117.2 82.8043 116.705 82.8043C116.313 82.8043 115.94 82.865 115.585 82.9863C115.23 83.0983 114.899 83.229 114.591 83.3783L114.213 82.4543C114.54 82.277 114.927 82.1276 115.375 82.0063C115.823 81.8756 116.29 81.8103 116.775 81.8103ZM117.139 85.8143C116.206 85.8516 115.557 86.001 115.193 86.2623C114.838 86.5236 114.661 86.8923 114.661 87.3683C114.661 87.7883 114.787 88.0963 115.039 88.2923C115.3 88.4883 115.632 88.5863 116.033 88.5863C116.668 88.5863 117.195 88.4136 117.615 88.0683C118.035 87.7136 118.245 87.1723 118.245 86.4443V85.7723L117.139 85.8143ZM131.959 81.9363V89.4403H121.781V81.9363H123.013V88.4043H126.247V81.9363H127.479V88.4043H130.727V81.9363H131.959ZM137.257 81.7963C137.901 81.7963 138.452 81.9363 138.909 82.2163C139.376 82.4963 139.73 82.893 139.973 83.4063C140.225 83.9103 140.351 84.503 140.351 85.1843V85.9263H135.213C135.232 86.7756 135.446 87.4243 135.857 87.8723C136.277 88.311 136.86 88.5303 137.607 88.5303C138.083 88.5303 138.503 88.4883 138.867 88.4043C139.24 88.311 139.623 88.1803 140.015 88.0123V89.0903C139.632 89.2583 139.254 89.3796 138.881 89.4543C138.508 89.5383 138.064 89.5803 137.551 89.5803C136.842 89.5803 136.212 89.4356 135.661 89.1463C135.12 88.857 134.695 88.4276 134.387 87.8583C134.088 87.2796 133.939 86.575 133.939 85.7443C133.939 84.923 134.074 84.2183 134.345 83.6303C134.625 83.0423 135.012 82.5896 135.507 82.2723C136.011 81.955 136.594 81.7963 137.257 81.7963ZM137.243 82.8043C136.655 82.8043 136.188 82.9956 135.843 83.3783C135.507 83.7516 135.306 84.2743 135.241 84.9463H139.063C139.063 84.517 138.998 84.1436 138.867 83.8263C138.736 83.509 138.536 83.2616 138.265 83.0843C138.004 82.8976 137.663 82.8043 137.243 82.8043ZM146.839 81.9363V82.9723H143.493V89.4403H142.261V81.9363H146.839ZM154.705 85.6743C154.705 86.2996 154.621 86.855 154.453 87.3403C154.295 87.8163 154.061 88.2223 153.753 88.5583C153.455 88.8943 153.086 89.151 152.647 89.3283C152.218 89.4963 151.737 89.5803 151.205 89.5803C150.711 89.5803 150.253 89.4963 149.833 89.3283C149.413 89.151 149.049 88.8943 148.741 88.5583C148.433 88.2223 148.191 87.8163 148.013 87.3403C147.845 86.855 147.761 86.2996 147.761 85.6743C147.761 84.8436 147.901 84.1436 148.181 83.5743C148.461 82.9956 148.863 82.557 149.385 82.2583C149.908 81.9503 150.529 81.7963 151.247 81.7963C151.929 81.7963 152.526 81.9503 153.039 82.2583C153.562 82.557 153.968 82.9956 154.257 83.5743C154.556 84.1436 154.705 84.8436 154.705 85.6743ZM149.035 85.6743C149.035 86.2623 149.11 86.7756 149.259 87.2143C149.418 87.6436 149.661 87.975 149.987 88.2083C150.314 88.4416 150.729 88.5583 151.233 88.5583C151.737 88.5583 152.153 88.4416 152.479 88.2083C152.806 87.975 153.044 87.6436 153.193 87.2143C153.352 86.7756 153.431 86.2623 153.431 85.6743C153.431 85.077 153.352 84.5683 153.193 84.1483C153.035 83.7283 152.792 83.4063 152.465 83.1823C152.148 82.949 151.733 82.8323 151.219 82.8323C150.454 82.8323 149.899 83.0843 149.553 83.5883C149.208 84.0923 149.035 84.7876 149.035 85.6743ZM165.866 81.9363V88.4043H166.958V92.0443H165.768V89.4403H160.546V92.0443H159.37V88.4043H159.972C160.402 87.807 160.756 87.1583 161.036 86.4583C161.326 85.749 161.54 85.0116 161.68 84.2463C161.83 83.4716 161.909 82.7016 161.918 81.9363H165.866ZM163.01 82.9023C162.973 83.537 162.875 84.195 162.716 84.8763C162.558 85.5483 162.352 86.1923 162.1 86.8083C161.858 87.4243 161.573 87.9563 161.246 88.4043H164.676V82.9023H163.01ZM174.953 85.6743C174.953 86.2996 174.869 86.855 174.701 87.3403C174.543 87.8163 174.309 88.2223 174.001 88.5583C173.703 88.8943 173.334 89.151 172.895 89.3283C172.466 89.4963 171.985 89.5803 171.453 89.5803C170.959 89.5803 170.501 89.4963 170.081 89.3283C169.661 89.151 169.297 88.8943 168.989 88.5583C168.681 88.2223 168.439 87.8163 168.261 87.3403C168.093 86.855 168.009 86.2996 168.009 85.6743C168.009 84.8436 168.149 84.1436 168.429 83.5743C168.709 82.9956 169.111 82.557 169.633 82.2583C170.156 81.9503 170.777 81.7963 171.495 81.7963C172.177 81.7963 172.774 81.9503 173.287 82.2583C173.81 82.557 174.216 82.9956 174.505 83.5743C174.804 84.1436 174.953 84.8436 174.953 85.6743ZM169.283 85.6743C169.283 86.2623 169.358 86.7756 169.507 87.2143C169.666 87.6436 169.909 87.975 170.235 88.2083C170.562 88.4416 170.977 88.5583 171.481 88.5583C171.985 88.5583 172.401 88.4416 172.727 88.2083C173.054 87.975 173.292 87.6436 173.441 87.2143C173.6 86.7756 173.679 86.2623 173.679 85.6743C173.679 85.077 173.6 84.5683 173.441 84.1483C173.283 83.7283 173.04 83.4063 172.713 83.1823C172.396 82.949 171.981 82.8323 171.467 82.8323C170.702 82.8323 170.147 83.0843 169.801 83.5883C169.456 84.0923 169.283 84.7876 169.283 85.6743ZM184.956 81.9363V89.4403H183.85V84.6523C183.85 84.4563 183.854 84.251 183.864 84.0363C183.882 83.8216 183.901 83.6116 183.92 83.4063H183.878L181.428 89.4403H180.392L178.012 83.4063H177.97C177.988 83.6116 177.998 83.8216 177.998 84.0363C178.007 84.251 178.012 84.4703 178.012 84.6943V89.4403H176.906V81.9363H178.544L180.91 87.9703L183.318 81.9363H184.956ZM190.193 81.8103C191.108 81.8103 191.784 82.011 192.223 82.4123C192.662 82.8136 192.881 83.453 192.881 84.3303V89.4403H191.985L191.747 88.3763H191.691C191.476 88.647 191.252 88.8756 191.019 89.0623C190.795 89.2396 190.534 89.3703 190.235 89.4543C189.946 89.5383 189.591 89.5803 189.171 89.5803C188.723 89.5803 188.317 89.501 187.953 89.3423C187.598 89.1836 187.318 88.941 187.113 88.6143C186.908 88.2783 186.805 87.8583 186.805 87.3543C186.805 86.6076 187.099 86.0336 187.687 85.6323C188.275 85.2216 189.18 84.9976 190.403 84.9603L191.677 84.9183V84.4703C191.677 83.845 191.542 83.411 191.271 83.1683C191 82.9256 190.618 82.8043 190.123 82.8043C189.731 82.8043 189.358 82.865 189.003 82.9863C188.648 83.0983 188.317 83.229 188.009 83.3783L187.631 82.4543C187.958 82.277 188.345 82.1276 188.793 82.0063C189.241 81.8756 189.708 81.8103 190.193 81.8103ZM190.557 85.8143C189.624 85.8516 188.975 86.001 188.611 86.2623C188.256 86.5236 188.079 86.8923 188.079 87.3683C188.079 87.7883 188.205 88.0963 188.457 88.2923C188.718 88.4883 189.05 88.5863 189.451 88.5863C190.086 88.5863 190.613 88.4136 191.033 88.0683C191.453 87.7136 191.663 87.1723 191.663 86.4443V85.7723L190.557 85.8143ZM205.178 81.9363V89.4403H203.946V82.9863H200.068V89.4403H198.836V81.9363H205.178ZM214.096 85.6743C214.096 86.2996 214.012 86.855 213.844 87.3403C213.685 87.8163 213.452 88.2223 213.144 88.5583C212.845 88.8943 212.477 89.151 212.038 89.3283C211.609 89.4963 211.128 89.5803 210.596 89.5803C210.101 89.5803 209.644 89.4963 209.224 89.3283C208.804 89.151 208.44 88.8943 208.132 88.5583C207.824 88.2223 207.581 87.8163 207.404 87.3403C207.236 86.855 207.152 86.2996 207.152 85.6743C207.152 84.8436 207.292 84.1436 207.572 83.5743C207.852 82.9956 208.253 82.557 208.776 82.2583C209.299 81.9503 209.919 81.7963 210.638 81.7963C211.319 81.7963 211.917 81.9503 212.43 82.2583C212.953 82.557 213.359 82.9956 213.648 83.5743C213.947 84.1436 214.096 84.8436 214.096 85.6743ZM208.426 85.6743C208.426 86.2623 208.501 86.7756 208.65 87.2143C208.809 87.6436 209.051 87.975 209.378 88.2083C209.705 88.4416 210.12 88.5583 210.624 88.5583C211.128 88.5583 211.543 88.4416 211.87 88.2083C212.197 87.975 212.435 87.6436 212.584 87.2143C212.743 86.7756 212.822 86.2623 212.822 85.6743C212.822 85.077 212.743 84.5683 212.584 84.1483C212.425 83.7283 212.183 83.4063 211.856 83.1823C211.539 82.949 211.123 82.8323 210.61 82.8323C209.845 82.8323 209.289 83.0843 208.944 83.5883C208.599 84.0923 208.426 84.7876 208.426 85.6743ZM224.263 81.9363V82.9723H220.917V89.4403H219.685V81.9363H224.263ZM224.862 88.6843C224.862 88.339 224.946 88.0963 225.114 87.9563C225.282 87.8163 225.483 87.7463 225.716 87.7463C225.959 87.7463 226.164 87.8163 226.332 87.9563C226.51 88.0963 226.598 88.339 226.598 88.6843C226.598 89.0203 226.51 89.263 226.332 89.4123C226.164 89.5616 225.959 89.6363 225.716 89.6363C225.483 89.6363 225.282 89.5616 225.114 89.4123C224.946 89.263 224.862 89.0203 224.862 88.6843ZM239.329 79.4443V88.3203H240.603V92.0723H239.399V89.4403H232.525V92.0723H231.321V88.3203H232.091C232.427 87.7416 232.745 87.093 233.043 86.3743C233.351 85.6556 233.622 84.9043 233.855 84.1203C234.089 83.327 234.28 82.5336 234.429 81.7403C234.579 80.947 234.672 80.1816 234.709 79.4443H239.329ZM235.815 80.5783C235.778 81.1196 235.685 81.731 235.535 82.4123C235.395 83.0936 235.213 83.7936 234.989 84.5123C234.775 85.2216 234.532 85.9076 234.261 86.5703C234 87.233 233.72 87.8163 233.421 88.3203H238.083V80.5783H235.815ZM240.931 81.9363H242.247L243.871 86.2063C243.964 86.4583 244.048 86.701 244.123 86.9343C244.207 87.1676 244.282 87.3963 244.347 87.6203C244.412 87.835 244.464 88.045 244.501 88.2503H244.557C244.613 88.017 244.702 87.7136 244.823 87.3403C244.944 86.9576 245.07 86.575 245.201 86.1923L246.727 81.9363H248.057L244.823 90.4763C244.646 90.943 244.436 91.349 244.193 91.6943C243.96 92.049 243.67 92.3196 243.325 92.5063C242.989 92.7023 242.578 92.8003 242.093 92.8003C241.869 92.8003 241.673 92.7863 241.505 92.7583C241.337 92.7396 241.192 92.7163 241.071 92.6883V91.7083C241.174 91.727 241.295 91.7456 241.435 91.7643C241.584 91.783 241.738 91.7923 241.897 91.7923C242.186 91.7923 242.434 91.7363 242.639 91.6243C242.854 91.5216 243.036 91.3676 243.185 91.1623C243.334 90.9663 243.46 90.733 243.563 90.4623L243.955 89.4683L240.931 81.9363ZM259.422 81.9363V89.4403H249.244V81.9363H250.476V88.4043H253.71V81.9363H254.942V88.4043H258.19V81.9363H259.422ZM264.664 81.8103C265.579 81.8103 266.255 82.011 266.694 82.4123C267.133 82.8136 267.352 83.453 267.352 84.3303V89.4403H266.456L266.218 88.3763H266.162C265.947 88.647 265.723 88.8756 265.49 89.0623C265.266 89.2396 265.005 89.3703 264.706 89.4543C264.417 89.5383 264.062 89.5803 263.642 89.5803C263.194 89.5803 262.788 89.501 262.424 89.3423C262.069 89.1836 261.789 88.941 261.584 88.6143C261.379 88.2783 261.276 87.8583 261.276 87.3543C261.276 86.6076 261.57 86.0336 262.158 85.6323C262.746 85.2216 263.651 84.9976 264.874 84.9603L266.148 84.9183V84.4703C266.148 83.845 266.013 83.411 265.742 83.1683C265.471 82.9256 265.089 82.8043 264.594 82.8043C264.202 82.8043 263.829 82.865 263.474 82.9863C263.119 83.0983 262.788 83.229 262.48 83.3783L262.102 82.4543C262.429 82.277 262.816 82.1276 263.264 82.0063C263.712 81.8756 264.179 81.8103 264.664 81.8103ZM265.028 85.8143C264.095 85.8516 263.446 86.001 263.082 86.2623C262.727 86.5236 262.55 86.8923 262.55 87.3683C262.55 87.7883 262.676 88.0963 262.928 88.2923C263.189 88.4883 263.521 88.5863 263.922 88.5863C264.557 88.5863 265.084 88.4136 265.504 88.0683C265.924 87.7136 266.134 87.1723 266.134 86.4443V85.7723L265.028 85.8143ZM270.901 81.9363V85.0583H274.975V81.9363H276.207V89.4403H274.975V86.0943H270.901V89.4403H269.669V81.9363H270.901ZM278.192 84.9323C278.192 83.8403 278.299 82.9116 278.514 82.1463C278.738 81.3716 279.078 80.7556 279.536 80.2983C280.002 79.8316 280.6 79.519 281.328 79.3603C281.934 79.2296 282.527 79.113 283.106 79.0103C283.684 78.9076 284.226 78.8143 284.73 78.7303L284.94 79.8083C284.697 79.8456 284.426 79.8923 284.128 79.9483C283.829 79.995 283.526 80.0463 283.218 80.1023C282.91 80.149 282.611 80.2003 282.322 80.2563C282.042 80.303 281.794 80.3496 281.58 80.3963C281.272 80.4616 280.996 80.5736 280.754 80.7323C280.511 80.8816 280.301 81.087 280.124 81.3483C279.956 81.6096 279.82 81.9316 279.718 82.3143C279.615 82.697 279.554 83.1496 279.536 83.6723H279.62C279.75 83.495 279.928 83.313 280.152 83.1263C280.385 82.9396 280.66 82.781 280.978 82.6503C281.304 82.5196 281.673 82.4543 282.084 82.4543C282.737 82.4543 283.278 82.599 283.708 82.8883C284.146 83.1683 284.473 83.5603 284.688 84.0643C284.912 84.5683 285.024 85.1563 285.024 85.8283C285.024 86.659 284.879 87.3543 284.59 87.9143C284.3 88.4743 283.899 88.8943 283.386 89.1743C282.872 89.445 282.275 89.5803 281.594 89.5803C281.08 89.5803 280.614 89.4823 280.194 89.2863C279.774 89.081 279.414 88.7823 279.116 88.3903C278.817 87.9983 278.588 87.513 278.43 86.9343C278.271 86.3556 278.192 85.6883 278.192 84.9323ZM281.692 88.5583C282.102 88.5583 282.457 88.4743 282.756 88.3063C283.064 88.1383 283.302 87.863 283.47 87.4803C283.638 87.0976 283.722 86.589 283.722 85.9543C283.722 85.189 283.577 84.587 283.288 84.1483C283.008 83.7003 282.541 83.4763 281.888 83.4763C281.477 83.4763 281.104 83.5696 280.768 83.7563C280.432 83.9336 280.152 84.139 279.928 84.3723C279.704 84.6056 279.545 84.8016 279.452 84.9603C279.452 85.4176 279.484 85.861 279.55 86.2903C279.615 86.7196 279.727 87.107 279.886 87.4523C280.054 87.7883 280.282 88.059 280.572 88.2643C280.87 88.4603 281.244 88.5583 281.692 88.5583ZM289.862 81.7963C290.506 81.7963 291.057 81.9363 291.514 82.2163C291.981 82.4963 292.336 82.893 292.578 83.4063C292.83 83.9103 292.956 84.503 292.956 85.1843V85.9263H287.818C287.837 86.7756 288.052 87.4243 288.462 87.8723C288.882 88.311 289.466 88.5303 290.212 88.5303C290.688 88.5303 291.108 88.4883 291.472 88.4043C291.846 88.311 292.228 88.1803 292.62 88.0123V89.0903C292.238 89.2583 291.86 89.3796 291.486 89.4543C291.113 89.5383 290.67 89.5803 290.156 89.5803C289.447 89.5803 288.817 89.4356 288.266 89.1463C287.725 88.857 287.3 88.4276 286.992 87.8583C286.694 87.2796 286.544 86.575 286.544 85.7443C286.544 84.923 286.68 84.2183 286.95 83.6303C287.23 83.0423 287.618 82.5896 288.112 82.2723C288.616 81.955 289.2 81.7963 289.862 81.7963ZM289.848 82.8043C289.26 82.8043 288.794 82.9956 288.448 83.3783C288.112 83.7516 287.912 84.2743 287.846 84.9463H291.668C291.668 84.517 291.603 84.1436 291.472 83.8263C291.342 83.509 291.141 83.2616 290.87 83.0843C290.609 82.8976 290.268 82.8043 289.848 82.8043Z" fill="#383553"/>
<path d="M22.279 105.055C21.785 105.055 21.3387 105.142 20.94 105.315C20.5414 105.48 20.2034 105.727 19.926 106.056C19.6487 106.377 19.4364 106.771 19.289 107.239C19.1417 107.699 19.068 108.219 19.068 108.799C19.068 109.562 19.185 110.225 19.419 110.788C19.6617 111.352 20.017 111.785 20.485 112.088C20.9617 112.392 21.5554 112.543 22.266 112.543C22.6734 112.543 23.059 112.509 23.423 112.439C23.787 112.37 24.1424 112.283 24.489 112.179V113.193C24.1424 113.323 23.7827 113.419 23.41 113.479C23.046 113.54 22.6084 113.57 22.097 113.57C21.1524 113.57 20.3637 113.375 19.731 112.985C19.0984 112.595 18.6217 112.041 18.301 111.321C17.989 110.602 17.833 109.757 17.833 108.786C17.833 108.084 17.9284 107.443 18.119 106.862C18.3184 106.282 18.6044 105.779 18.977 105.354C19.3584 104.93 19.8264 104.605 20.381 104.379C20.9357 104.145 21.5727 104.028 22.292 104.028C22.7687 104.028 23.228 104.076 23.67 104.171C24.112 104.267 24.5064 104.401 24.853 104.574L24.385 105.562C24.099 105.432 23.7784 105.315 23.423 105.211C23.0764 105.107 22.695 105.055 22.279 105.055ZM31.1689 107.434H28.8939V113.44H27.7629V107.434H25.5139V106.472H31.1689V107.434ZM38.4726 109.943C38.4726 110.524 38.3946 111.04 38.2386 111.49C38.0912 111.932 37.8746 112.309 37.5886 112.621C37.3112 112.933 36.9689 113.172 36.5616 113.336C36.1629 113.492 35.7166 113.57 35.2226 113.57C34.7632 113.57 34.3386 113.492 33.9486 113.336C33.5586 113.172 33.2206 112.933 32.9346 112.621C32.6486 112.309 32.4232 111.932 32.2586 111.49C32.1026 111.04 32.0246 110.524 32.0246 109.943C32.0246 109.172 32.1546 108.522 32.4146 107.993C32.6746 107.456 33.0472 107.049 33.5326 106.771C34.0179 106.485 34.5942 106.342 35.2616 106.342C35.8942 106.342 36.4489 106.485 36.9256 106.771C37.4109 107.049 37.7879 107.456 38.0566 107.993C38.3339 108.522 38.4726 109.172 38.4726 109.943ZM33.2076 109.943C33.2076 110.489 33.2769 110.966 33.4156 111.373C33.5629 111.772 33.7882 112.08 34.0916 112.296C34.3949 112.513 34.7806 112.621 35.2486 112.621C35.7166 112.621 36.1022 112.513 36.4056 112.296C36.7089 112.08 36.9299 111.772 37.0686 111.373C37.2159 110.966 37.2896 110.489 37.2896 109.943C37.2896 109.389 37.2159 108.916 37.0686 108.526C36.9212 108.136 36.6959 107.837 36.3926 107.629C36.0979 107.413 35.7122 107.304 35.2356 107.304C34.5249 107.304 34.0092 107.538 33.6886 108.006C33.3679 108.474 33.2076 109.12 33.2076 109.943ZM41.3647 110.723C41.3647 110.801 41.3603 110.914 41.3517 111.061C41.3517 111.2 41.3473 111.352 41.3387 111.516C41.33 111.672 41.3213 111.824 41.3127 111.971C41.304 112.11 41.2953 112.223 41.2867 112.309L45.0177 106.472H46.4217V113.44H45.3557V109.332C45.3557 109.194 45.3557 109.012 45.3557 108.786C45.3643 108.561 45.373 108.34 45.3817 108.123C45.3903 107.898 45.399 107.729 45.4077 107.616L41.7027 113.44H40.2857V106.472H41.3647V110.723ZM56.1142 106.472V113.44H55.0872V108.994C55.0872 108.812 55.0915 108.622 55.1002 108.422C55.1175 108.223 55.1348 108.028 55.1522 107.837H55.1132L52.8382 113.44H51.8762L49.6662 107.837H49.6272C49.6445 108.028 49.6532 108.223 49.6532 108.422C49.6618 108.622 49.6662 108.825 49.6662 109.033V113.44H48.6392V106.472H50.1602L52.3572 112.075L54.5932 106.472H56.1142ZM64.3964 109.943C64.3964 110.524 64.3184 111.04 64.1624 111.49C64.0151 111.932 63.7984 112.309 63.5124 112.621C63.2351 112.933 62.8927 113.172 62.4854 113.336C62.0867 113.492 61.6404 113.57 61.1464 113.57C60.6871 113.57 60.2624 113.492 59.8724 113.336C59.4824 113.172 59.1444 112.933 58.8584 112.621C58.5724 112.309 58.3471 111.932 58.1824 111.49C58.0264 111.04 57.9484 110.524 57.9484 109.943C57.9484 109.172 58.0784 108.522 58.3384 107.993C58.5984 107.456 58.9711 107.049 59.4564 106.771C59.9417 106.485 60.5181 106.342 61.1854 106.342C61.8181 106.342 62.3727 106.485 62.8494 106.771C63.3347 107.049 63.7117 107.456 63.9804 107.993C64.2577 108.522 64.3964 109.172 64.3964 109.943ZM59.1314 109.943C59.1314 110.489 59.2007 110.966 59.3394 111.373C59.4867 111.772 59.7121 112.08 60.0154 112.296C60.3187 112.513 60.7044 112.621 61.1724 112.621C61.6404 112.621 62.0261 112.513 62.3294 112.296C62.6327 112.08 62.8537 111.772 62.9924 111.373C63.1397 110.966 63.2134 110.489 63.2134 109.943C63.2134 109.389 63.1397 108.916 62.9924 108.526C62.8451 108.136 62.6197 107.837 62.3164 107.629C62.0217 107.413 61.6361 107.304 61.1594 107.304C60.4487 107.304 59.9331 107.538 59.6124 108.006C59.2917 108.474 59.1314 109.12 59.1314 109.943ZM69.0045 113.57C68.3892 113.57 67.8388 113.445 67.3535 113.193C66.8768 112.942 66.4998 112.552 66.2225 112.023C65.9538 111.495 65.8195 110.819 65.8195 109.995C65.8195 109.137 65.9625 108.44 66.2485 107.902C66.5345 107.365 66.9202 106.971 67.4055 106.719C67.8995 106.468 68.4585 106.342 69.0825 106.342C69.4378 106.342 69.7802 106.381 70.1095 106.459C70.4388 106.529 70.7075 106.615 70.9155 106.719L70.5645 107.668C70.3565 107.59 70.1138 107.517 69.8365 107.447C69.5592 107.378 69.2992 107.343 69.0565 107.343C68.5885 107.343 68.2028 107.443 67.8995 107.642C67.5962 107.842 67.3708 108.136 67.2235 108.526C67.0762 108.916 67.0025 109.402 67.0025 109.982C67.0025 110.537 67.0762 111.009 67.2235 111.399C67.3708 111.789 67.5918 112.084 67.8865 112.283C68.1812 112.483 68.5495 112.582 68.9915 112.582C69.3728 112.582 69.7065 112.543 69.9925 112.465C70.2872 112.387 70.5558 112.292 70.7985 112.179V113.193C70.5645 113.315 70.3045 113.406 70.0185 113.466C69.7412 113.536 69.4032 113.57 69.0045 113.57ZM77.2656 107.434H74.9906V113.44H73.8596V107.434H71.6106V106.472H77.2656V107.434ZM81.8492 109.332C82.4559 109.332 82.9585 109.406 83.3572 109.553C83.7559 109.701 84.0549 109.922 84.2542 110.216C84.4622 110.502 84.5662 110.866 84.5662 111.308C84.5662 111.742 84.4665 112.119 84.2672 112.439C84.0765 112.76 83.7775 113.007 83.3702 113.18C82.9629 113.354 82.4385 113.44 81.7972 113.44H78.6382V106.472H79.7822V109.332H81.8492ZM83.4222 111.373C83.4222 110.949 83.2705 110.663 82.9672 110.515C82.6725 110.359 82.2565 110.281 81.7192 110.281H79.7822V112.517H81.7452C82.2305 112.517 82.6292 112.431 82.9412 112.257C83.2619 112.084 83.4222 111.789 83.4222 111.373ZM94.9079 106.472V112.478H95.9219V115.858H94.8169V113.44H89.9679V115.858H88.8759V112.478H89.4349C89.8336 111.924 90.1629 111.321 90.4229 110.671C90.6916 110.013 90.8909 109.328 91.0209 108.617C91.1596 107.898 91.2332 107.183 91.2419 106.472H94.9079ZM92.2559 107.369C92.2212 107.959 92.1302 108.57 91.9829 109.202C91.8356 109.826 91.6449 110.424 91.4109 110.996C91.1856 111.568 90.9212 112.062 90.6179 112.478H93.8029V107.369H92.2559ZM103.346 109.943C103.346 110.524 103.268 111.04 103.112 111.49C102.964 111.932 102.748 112.309 102.462 112.621C102.184 112.933 101.842 113.172 101.435 113.336C101.036 113.492 100.59 113.57 100.096 113.57C99.6363 113.57 99.2116 113.492 98.8216 113.336C98.4316 113.172 98.0936 112.933 97.8076 112.621C97.5216 112.309 97.2963 111.932 97.1316 111.49C96.9756 111.04 96.8976 110.524 96.8976 109.943C96.8976 109.172 97.0276 108.522 97.2876 107.993C97.5476 107.456 97.9203 107.049 98.4056 106.771C98.891 106.485 99.4673 106.342 100.135 106.342C100.767 106.342 101.322 106.485 101.799 106.771C102.284 107.049 102.661 107.456 102.93 107.993C103.207 108.522 103.346 109.172 103.346 109.943ZM98.0806 109.943C98.0806 110.489 98.15 110.966 98.2886 111.373C98.436 111.772 98.6613 112.08 98.9646 112.296C99.268 112.513 99.6536 112.621 100.122 112.621C100.59 112.621 100.975 112.513 101.279 112.296C101.582 112.08 101.803 111.772 101.942 111.373C102.089 110.966 102.163 110.489 102.163 109.943C102.163 109.389 102.089 108.916 101.942 108.526C101.794 108.136 101.569 107.837 101.266 107.629C100.971 107.413 100.585 107.304 100.109 107.304C99.398 107.304 98.8823 107.538 98.5616 108.006C98.241 108.474 98.0806 109.12 98.0806 109.943ZM107.954 113.57C107.338 113.57 106.788 113.445 106.303 113.193C105.826 112.942 105.449 112.552 105.172 112.023C104.903 111.495 104.769 110.819 104.769 109.995C104.769 109.137 104.912 108.44 105.198 107.902C105.484 107.365 105.869 106.971 106.355 106.719C106.849 106.468 107.408 106.342 108.032 106.342C108.387 106.342 108.729 106.381 109.059 106.459C109.388 106.529 109.657 106.615 109.865 106.719L109.514 107.668C109.306 107.59 109.063 107.517 108.786 107.447C108.508 107.378 108.248 107.343 108.006 107.343C107.538 107.343 107.152 107.443 106.849 107.642C106.545 107.842 106.32 108.136 106.173 108.526C106.025 108.916 105.952 109.402 105.952 109.982C105.952 110.537 106.025 111.009 106.173 111.399C106.32 111.789 106.541 112.084 106.836 112.283C107.13 112.483 107.499 112.582 107.941 112.582C108.322 112.582 108.656 112.543 108.942 112.465C109.236 112.387 109.505 112.292 109.748 112.179V113.193C109.514 113.315 109.254 113.406 108.968 113.466C108.69 113.536 108.352 113.57 107.954 113.57ZM116.215 107.434H113.94V113.44H112.809V107.434H110.56V106.472H116.215V107.434ZM120.226 106.355C121.076 106.355 121.704 106.542 122.111 106.914C122.519 107.287 122.722 107.881 122.722 108.695V113.44H121.89L121.669 112.452H121.617C121.418 112.704 121.21 112.916 120.993 113.089C120.785 113.254 120.543 113.375 120.265 113.453C119.997 113.531 119.667 113.57 119.277 113.57C118.861 113.57 118.484 113.497 118.146 113.349C117.817 113.202 117.557 112.977 117.366 112.673C117.176 112.361 117.08 111.971 117.08 111.503C117.08 110.81 117.353 110.277 117.899 109.904C118.445 109.523 119.286 109.315 120.421 109.28L121.604 109.241V108.825C121.604 108.245 121.479 107.842 121.227 107.616C120.976 107.391 120.621 107.278 120.161 107.278C119.797 107.278 119.451 107.335 119.121 107.447C118.792 107.551 118.484 107.673 118.198 107.811L117.847 106.953C118.151 106.789 118.51 106.65 118.926 106.537C119.342 106.416 119.776 106.355 120.226 106.355ZM120.564 110.073C119.698 110.108 119.095 110.247 118.757 110.489C118.428 110.732 118.263 111.074 118.263 111.516C118.263 111.906 118.38 112.192 118.614 112.374C118.857 112.556 119.165 112.647 119.537 112.647C120.127 112.647 120.616 112.487 121.006 112.166C121.396 111.837 121.591 111.334 121.591 110.658V110.034L120.564 110.073ZM130.478 108.227C130.478 108.661 130.348 108.999 130.088 109.241C129.828 109.484 129.494 109.649 129.087 109.735V109.787C129.52 109.848 129.897 110.004 130.218 110.255C130.538 110.498 130.699 110.879 130.699 111.399C130.699 111.694 130.642 111.967 130.53 112.218C130.426 112.47 130.261 112.686 130.036 112.868C129.81 113.05 129.52 113.193 129.165 113.297C128.809 113.393 128.38 113.44 127.878 113.44H124.875V106.472H127.865C128.359 106.472 128.801 106.529 129.191 106.641C129.589 106.745 129.901 106.927 130.127 107.187C130.361 107.439 130.478 107.785 130.478 108.227ZM129.516 111.399C129.516 111.001 129.364 110.715 129.061 110.541C128.757 110.368 128.311 110.281 127.722 110.281H126.019V112.517H127.748C128.32 112.517 128.757 112.435 129.061 112.27C129.364 112.097 129.516 111.807 129.516 111.399ZM129.321 108.37C129.321 108.041 129.199 107.803 128.957 107.655C128.723 107.499 128.337 107.421 127.8 107.421H126.019V109.332H127.592C128.155 109.332 128.584 109.254 128.879 109.098C129.173 108.942 129.321 108.7 129.321 108.37ZM136.486 106.472H137.734L134.757 109.826L137.981 113.44H136.655L133.509 109.904V113.44H132.365V106.472H133.509V109.852L136.486 106.472ZM140.325 110.723C140.325 110.801 140.32 110.914 140.312 111.061C140.312 111.2 140.307 111.352 140.299 111.516C140.29 111.672 140.281 111.824 140.273 111.971C140.264 112.11 140.255 112.223 140.247 112.309L143.978 106.472H145.382V113.44H144.316V109.332C144.316 109.194 144.316 109.012 144.316 108.786C144.324 108.561 144.333 108.34 144.342 108.123C144.35 107.898 144.359 107.729 144.368 107.616L140.663 113.44H139.246V106.472H140.325V110.723ZM157.034 109.943C157.034 110.524 156.956 111.04 156.8 111.49C156.653 111.932 156.436 112.309 156.15 112.621C155.873 112.933 155.53 113.172 155.123 113.336C154.724 113.492 154.278 113.57 153.784 113.57C153.325 113.57 152.9 113.492 152.51 113.336C152.12 113.172 151.782 112.933 151.496 112.621C151.21 112.309 150.985 111.932 150.82 111.49C150.664 111.04 150.586 110.524 150.586 109.943C150.586 109.172 150.716 108.522 150.976 107.993C151.236 107.456 151.609 107.049 152.094 106.771C152.579 106.485 153.156 106.342 153.823 106.342C154.456 106.342 155.01 106.485 155.487 106.771C155.972 107.049 156.349 107.456 156.618 107.993C156.895 108.522 157.034 109.172 157.034 109.943ZM151.769 109.943C151.769 110.489 151.838 110.966 151.977 111.373C152.124 111.772 152.35 112.08 152.653 112.296C152.956 112.513 153.342 112.621 153.81 112.621C154.278 112.621 154.664 112.513 154.967 112.296C155.27 112.08 155.491 111.772 155.63 111.373C155.777 110.966 155.851 110.489 155.851 109.943C155.851 109.389 155.777 108.916 155.63 108.526C155.483 108.136 155.257 107.837 154.954 107.629C154.659 107.413 154.274 107.304 153.797 107.304C153.086 107.304 152.571 107.538 152.25 108.006C151.929 108.474 151.769 109.12 151.769 109.943ZM163.53 107.434H161.255V113.44H160.124V107.434H157.875V106.472H163.53V107.434ZM170.75 107.746C171.382 107.746 171.933 107.855 172.401 108.071C172.869 108.288 173.228 108.6 173.48 109.007C173.74 109.406 173.87 109.896 173.87 110.476C173.87 111.118 173.731 111.672 173.454 112.14C173.176 112.6 172.778 112.955 172.258 113.206C171.746 113.449 171.127 113.57 170.399 113.57C169.922 113.57 169.471 113.527 169.047 113.44C168.631 113.354 168.28 113.228 167.994 113.063V111.984C168.306 112.175 168.683 112.327 169.125 112.439C169.575 112.543 170.004 112.595 170.412 112.595C170.871 112.595 171.27 112.526 171.608 112.387C171.954 112.24 172.223 112.019 172.414 111.724C172.604 111.421 172.7 111.044 172.7 110.593C172.7 109.987 172.513 109.523 172.141 109.202C171.768 108.873 171.179 108.708 170.373 108.708C170.13 108.708 169.853 108.73 169.541 108.773C169.229 108.817 168.977 108.86 168.787 108.903L168.215 108.539L168.566 104.158H173.22V105.198H169.541L169.32 107.889C169.467 107.863 169.666 107.833 169.918 107.798C170.169 107.764 170.446 107.746 170.75 107.746ZM181.891 113.57C181.276 113.57 180.726 113.445 180.24 113.193C179.764 112.942 179.387 112.552 179.109 112.023C178.841 111.495 178.706 110.819 178.706 109.995C178.706 109.137 178.849 108.44 179.135 107.902C179.421 107.365 179.807 106.971 180.292 106.719C180.786 106.468 181.345 106.342 181.969 106.342C182.325 106.342 182.667 106.381 182.996 106.459C183.326 106.529 183.594 106.615 183.802 106.719L183.451 107.668C183.243 107.59 183.001 107.517 182.723 107.447C182.446 107.378 182.186 107.343 181.943 107.343C181.475 107.343 181.09 107.443 180.786 107.642C180.483 107.842 180.258 108.136 180.11 108.526C179.963 108.916 179.889 109.402 179.889 109.982C179.889 110.537 179.963 111.009 180.11 111.399C180.258 111.789 180.479 112.084 180.773 112.283C181.068 112.483 181.436 112.582 181.878 112.582C182.26 112.582 182.593 112.543 182.879 112.465C183.174 112.387 183.443 112.292 183.685 112.179V113.193C183.451 113.315 183.191 113.406 182.905 113.466C182.628 113.536 182.29 113.57 181.891 113.57ZM191.4 109.943C191.4 110.524 191.322 111.04 191.166 111.49C191.019 111.932 190.802 112.309 190.516 112.621C190.239 112.933 189.897 113.172 189.489 113.336C189.091 113.492 188.644 113.57 188.15 113.57C187.691 113.57 187.266 113.492 186.876 113.336C186.486 113.172 186.148 112.933 185.862 112.621C185.576 112.309 185.351 111.932 185.186 111.49C185.03 111.04 184.952 110.524 184.952 109.943C184.952 109.172 185.082 108.522 185.342 107.993C185.602 107.456 185.975 107.049 186.46 106.771C186.946 106.485 187.522 106.342 188.189 106.342C188.822 106.342 189.377 106.485 189.853 106.771C190.339 107.049 190.716 107.456 190.984 107.993C191.262 108.522 191.4 109.172 191.4 109.943ZM186.135 109.943C186.135 110.489 186.205 110.966 186.343 111.373C186.491 111.772 186.716 112.08 187.019 112.296C187.323 112.513 187.708 112.621 188.176 112.621C188.644 112.621 189.03 112.513 189.333 112.296C189.637 112.08 189.858 111.772 189.996 111.373C190.144 110.966 190.217 110.489 190.217 109.943C190.217 109.389 190.144 108.916 189.996 108.526C189.849 108.136 189.624 107.837 189.32 107.629C189.026 107.413 188.64 107.304 188.163 107.304C187.453 107.304 186.937 107.538 186.616 108.006C186.296 108.474 186.135 109.12 186.135 109.943ZM200.688 106.472V113.44H199.661V108.994C199.661 108.812 199.666 108.622 199.674 108.422C199.692 108.223 199.709 108.028 199.726 107.837H199.687L197.412 113.44H196.45L194.24 107.837H194.201C194.219 108.028 194.227 108.223 194.227 108.422C194.236 108.622 194.24 108.825 194.24 109.033V113.44H193.213V106.472H194.734L196.931 112.075L199.167 106.472H200.688ZM208.971 109.943C208.971 110.524 208.893 111.04 208.737 111.49C208.589 111.932 208.373 112.309 208.087 112.621C207.809 112.933 207.467 113.172 207.06 113.336C206.661 113.492 206.215 113.57 205.721 113.57C205.261 113.57 204.837 113.492 204.447 113.336C204.057 113.172 203.719 112.933 203.433 112.621C203.147 112.309 202.921 111.932 202.757 111.49C202.601 111.04 202.523 110.524 202.523 109.943C202.523 109.172 202.653 108.522 202.913 107.993C203.173 107.456 203.545 107.049 204.031 106.771C204.516 106.485 205.092 106.342 205.76 106.342C206.392 106.342 206.947 106.485 207.424 106.771C207.909 107.049 208.286 107.456 208.555 107.993C208.832 108.522 208.971 109.172 208.971 109.943ZM203.706 109.943C203.706 110.489 203.775 110.966 203.914 111.373C204.061 111.772 204.286 112.08 204.59 112.296C204.893 112.513 205.279 112.621 205.747 112.621C206.215 112.621 206.6 112.513 206.904 112.296C207.207 112.08 207.428 111.772 207.567 111.373C207.714 110.966 207.788 110.489 207.788 109.943C207.788 109.389 207.714 108.916 207.567 108.526C207.419 108.136 207.194 107.837 206.891 107.629C206.596 107.413 206.21 107.304 205.734 107.304C205.023 107.304 204.507 107.538 204.187 108.006C203.866 108.474 203.706 109.12 203.706 109.943ZM211.928 106.472V109.371H215.711V106.472H216.855V113.44H215.711V110.333H211.928V113.44H210.784V106.472H211.928ZM220.14 110.723C220.14 110.801 220.136 110.914 220.127 111.061C220.127 111.2 220.123 111.352 220.114 111.516C220.105 111.672 220.097 111.824 220.088 111.971C220.079 112.11 220.071 112.223 220.062 112.309L223.793 106.472H225.197V113.44H224.131V109.332C224.131 109.194 224.131 109.012 224.131 108.786C224.14 108.561 224.148 108.34 224.157 108.123C224.166 107.898 224.174 107.729 224.183 107.616L220.478 113.44H219.061V106.472H220.14V110.723Z" fill="#383553"/>
<path d="M79.3824 163.428C79.3824 164.203 79.2844 164.908 79.0884 165.542C78.9018 166.168 78.6124 166.709 78.2204 167.166C77.8378 167.624 77.3524 167.974 76.7644 168.216C76.1858 168.459 75.5091 168.58 74.7344 168.58C73.9411 168.58 73.2504 168.459 72.6624 168.216C72.0838 167.964 71.5984 167.614 71.2064 167.166C70.8238 166.709 70.5391 166.163 70.3524 165.528C70.1658 164.894 70.0724 164.189 70.0724 163.414C70.0724 162.388 70.2404 161.492 70.5764 160.726C70.9124 159.961 71.4258 159.364 72.1164 158.934C72.8164 158.505 73.6938 158.29 74.7484 158.29C75.7751 158.29 76.6291 158.505 77.3104 158.934C78.0011 159.354 78.5191 159.952 78.8644 160.726C79.2098 161.492 79.3824 162.392 79.3824 163.428ZM71.6684 163.428C71.6684 164.231 71.7758 164.922 71.9904 165.5C72.2051 166.07 72.5411 166.513 72.9984 166.83C73.4558 167.138 74.0344 167.292 74.7344 167.292C75.4438 167.292 76.0224 167.138 76.4704 166.83C76.9184 166.513 77.2498 166.07 77.4644 165.5C77.6791 164.922 77.7864 164.231 77.7864 163.428C77.7864 162.224 77.5438 161.286 77.0584 160.614C76.5824 159.933 75.8124 159.592 74.7484 159.592C74.0391 159.592 73.4558 159.746 72.9984 160.054C72.5411 160.362 72.2051 160.801 71.9904 161.37C71.7758 161.94 71.6684 162.626 71.6684 163.428ZM81.5546 168.44V158.444H89.1706V168.44H87.6726V159.746H83.0666V168.44H81.5546ZM99.2555 168.44H97.7435V159.746H94.7895C94.7242 160.232 94.6542 160.75 94.5795 161.3C94.5142 161.842 94.4442 162.383 94.3695 162.924C94.2949 163.466 94.2202 163.979 94.1455 164.464C94.0709 164.94 93.9962 165.36 93.9215 165.724C93.8002 166.331 93.6462 166.849 93.4595 167.278C93.2729 167.708 93.0255 168.034 92.7175 168.258C92.4095 168.482 92.0035 168.594 91.4995 168.594C91.3315 168.594 91.1635 168.576 90.9955 168.538C90.8369 168.51 90.6922 168.473 90.5615 168.426V167.18C90.6735 167.218 90.7902 167.255 90.9115 167.292C91.0422 167.32 91.1775 167.334 91.3175 167.334C91.5789 167.334 91.7842 167.236 91.9335 167.04C92.0829 166.844 92.2042 166.583 92.2975 166.256C92.3909 165.93 92.4749 165.57 92.5495 165.178C92.5962 164.917 92.6569 164.567 92.7315 164.128C92.8062 163.69 92.8855 163.172 92.9695 162.574C93.0629 161.977 93.1562 161.328 93.2495 160.628C93.3522 159.928 93.4455 159.2 93.5295 158.444H99.2555V168.44ZM108.142 168.44L107.078 165.556H103.214L102.15 168.44H100.582L104.376 158.402H105.944L109.724 168.44H108.142ZM105.65 161.426C105.622 161.324 105.571 161.17 105.496 160.964C105.431 160.75 105.365 160.535 105.3 160.32C105.235 160.096 105.183 159.914 105.146 159.774C105.099 159.961 105.043 160.166 104.978 160.39C104.922 160.605 104.866 160.806 104.81 160.992C104.754 161.17 104.707 161.314 104.67 161.426L103.662 164.24H106.658L105.65 161.426ZM113.448 168.44H111.936V159.746H108.94V158.444H116.444V159.746H113.448V168.44ZM123.222 168.44L122.158 165.556H118.294L117.23 168.44H115.662L119.456 158.402H121.024L124.804 168.44H123.222ZM120.73 161.426C120.702 161.324 120.651 161.17 120.576 160.964C120.511 160.75 120.445 160.535 120.38 160.32C120.315 160.096 120.263 159.914 120.226 159.774C120.179 159.961 120.123 160.166 120.058 160.39C120.002 160.605 119.946 160.806 119.89 160.992C119.834 161.17 119.787 161.314 119.75 161.426L118.742 164.24H121.738L120.73 161.426Z" fill="#383553"/>
<path d="M18.5 196.198H19.687L22.7148 203.733L25.7363 196.198H26.9297L23.1719 205.44H22.2451L18.5 196.198ZM18.1128 196.198H19.1602L19.3315 201.835V205.44H18.1128V196.198ZM26.2632 196.198H27.3105V205.44H26.0918V201.835L26.2632 196.198ZM30.5542 203.58L33.7217 198.572H34.9023V205.44H33.7217V200.432L30.5542 205.44H29.3862V198.572H30.5542V203.58ZM41.4468 201.549V202.501H37.8159V201.549H41.4468ZM38.0635 198.572V205.44H36.8892V198.572H38.0635ZM42.3989 198.572V205.44H41.2183V198.572H42.3989ZM45.5601 203.58L48.7275 198.572H49.9082V205.44H48.7275V200.432L45.5601 205.44H44.3921V198.572H45.5601V203.58ZM55.7417 203.879L58.0776 198.572H59.2075L56.1479 205.44H55.3354L52.2886 198.572H53.4185L55.7417 203.879ZM53.0757 198.572V205.44H51.9014V198.572H53.0757ZM58.3696 205.44V198.572H59.5503V205.44H58.3696ZM65.4917 204.266V200.73C65.4917 200.46 65.4367 200.225 65.3267 200.026C65.2209 199.823 65.0601 199.666 64.8442 199.556C64.6284 199.446 64.3618 199.391 64.0444 199.391C63.7482 199.391 63.488 199.442 63.2637 199.543C63.0436 199.645 62.8701 199.778 62.7432 199.943C62.6204 200.108 62.5591 200.286 62.5591 200.476H61.3848C61.3848 200.231 61.4482 199.988 61.5752 199.746C61.7021 199.505 61.8841 199.287 62.1211 199.093C62.3623 198.894 62.6501 198.737 62.9844 198.623C63.3229 198.504 63.6995 198.445 64.1143 198.445C64.6136 198.445 65.0537 198.53 65.4346 198.699C65.8197 198.868 66.1201 199.124 66.3359 199.467C66.556 199.806 66.666 200.231 66.666 200.743V203.942C66.666 204.171 66.6851 204.414 66.7231 204.672C66.7655 204.93 66.8268 205.153 66.9072 205.339V205.44H65.6821C65.6229 205.305 65.5763 205.125 65.5425 204.901C65.5086 204.672 65.4917 204.461 65.4917 204.266ZM65.6948 201.276L65.7075 202.101H64.5205C64.1862 202.101 63.8879 202.129 63.6255 202.184C63.3631 202.235 63.1431 202.313 62.9653 202.419C62.7876 202.525 62.6522 202.658 62.5591 202.819C62.466 202.975 62.4194 203.159 62.4194 203.371C62.4194 203.587 62.4681 203.784 62.5654 203.961C62.6628 204.139 62.8088 204.281 63.0034 204.387C63.2023 204.488 63.4456 204.539 63.7334 204.539C64.0931 204.539 64.4105 204.463 64.6855 204.31C64.9606 204.158 65.1785 203.972 65.3394 203.752C65.5044 203.532 65.5933 203.318 65.606 203.111L66.1074 203.676C66.0778 203.853 65.9974 204.05 65.8662 204.266C65.735 204.482 65.5594 204.689 65.3394 204.888C65.1235 205.083 64.8654 205.246 64.5649 205.377C64.2687 205.504 63.9344 205.567 63.562 205.567C63.0965 205.567 62.6882 205.476 62.3369 205.294C61.9899 205.112 61.7191 204.869 61.5244 204.564C61.334 204.255 61.2388 203.911 61.2388 203.53C61.2388 203.161 61.3107 202.838 61.4546 202.558C61.5985 202.275 61.8058 202.04 62.0767 201.854C62.3475 201.663 62.6733 201.52 63.0542 201.422C63.4351 201.325 63.8604 201.276 64.3301 201.276H65.6948ZM73.1025 198.572V199.543H69.7827V198.572H73.1025ZM74.1372 198.572V205.44H72.9629V198.572H74.1372ZM69.4971 198.572H70.6777L70.5 201.886C70.4704 202.398 70.4217 202.85 70.354 203.244C70.2905 203.633 70.2017 203.968 70.0874 204.247C69.9774 204.526 69.8377 204.755 69.6685 204.932C69.5034 205.106 69.3045 205.235 69.0718 205.32C68.839 205.4 68.5703 205.44 68.2656 205.44H67.8975V204.406L68.1514 204.387C68.3333 204.374 68.4878 204.332 68.6147 204.26C68.7459 204.188 68.856 204.082 68.9448 203.942C69.0337 203.798 69.1056 203.614 69.1606 203.39C69.2199 203.166 69.2643 202.899 69.2939 202.59C69.3278 202.281 69.3532 201.922 69.3701 201.511L69.4971 198.572ZM76.9937 200.933H79.0566C79.611 200.933 80.0786 201.031 80.4595 201.225C80.8403 201.416 81.1281 201.68 81.3228 202.019C81.5216 202.353 81.6211 202.734 81.6211 203.161C81.6211 203.479 81.5661 203.777 81.4561 204.057C81.346 204.332 81.181 204.573 80.9609 204.78C80.7451 204.988 80.4764 205.15 80.1548 205.269C79.8374 205.383 79.4714 205.44 79.0566 205.44H76.1367V198.572H77.311V204.475H79.0566C79.3952 204.475 79.666 204.414 79.8691 204.291C80.0723 204.169 80.2183 204.01 80.3071 203.815C80.396 203.621 80.4404 203.418 80.4404 203.206C80.4404 202.999 80.396 202.795 80.3071 202.597C80.2183 202.398 80.0723 202.233 79.8691 202.101C79.666 201.966 79.3952 201.898 79.0566 201.898H76.9937V200.933ZM87.7466 201.549V202.501H84.1157V201.549H87.7466ZM84.3633 198.572V205.44H83.189V198.572H84.3633ZM88.6987 198.572V205.44H87.5181V198.572H88.6987ZM94.6401 204.266V200.73C94.6401 200.46 94.5851 200.225 94.4751 200.026C94.3693 199.823 94.2085 199.666 93.9927 199.556C93.7769 199.446 93.5103 199.391 93.1929 199.391C92.8966 199.391 92.6364 199.442 92.4121 199.543C92.1921 199.645 92.0186 199.778 91.8916 199.943C91.7689 200.108 91.7075 200.286 91.7075 200.476H90.5332C90.5332 200.231 90.5967 199.988 90.7236 199.746C90.8506 199.505 91.0326 199.287 91.2695 199.093C91.5107 198.894 91.7985 198.737 92.1328 198.623C92.4714 198.504 92.848 198.445 93.2627 198.445C93.762 198.445 94.2021 198.53 94.583 198.699C94.9681 198.868 95.2686 199.124 95.4844 199.467C95.7044 199.806 95.8145 200.231 95.8145 200.743V203.942C95.8145 204.171 95.8335 204.414 95.8716 204.672C95.9139 204.93 95.9753 205.153 96.0557 205.339V205.44H94.8306C94.7713 205.305 94.7248 205.125 94.6909 204.901C94.6571 204.672 94.6401 204.461 94.6401 204.266ZM94.8433 201.276L94.856 202.101H93.6689C93.3346 202.101 93.0363 202.129 92.7739 202.184C92.5116 202.235 92.2915 202.313 92.1138 202.419C91.936 202.525 91.8006 202.658 91.7075 202.819C91.6144 202.975 91.5679 203.159 91.5679 203.371C91.5679 203.587 91.6165 203.784 91.7139 203.961C91.8112 204.139 91.9572 204.281 92.1519 204.387C92.3507 204.488 92.5941 204.539 92.8818 204.539C93.2415 204.539 93.5589 204.463 93.834 204.31C94.109 204.158 94.327 203.972 94.4878 203.752C94.6528 203.532 94.7417 203.318 94.7544 203.111L95.2559 203.676C95.2262 203.853 95.1458 204.05 95.0146 204.266C94.8835 204.482 94.7078 204.689 94.4878 204.888C94.272 205.083 94.0138 205.246 93.7134 205.377C93.4172 205.504 93.0828 205.567 92.7104 205.567C92.245 205.567 91.8366 205.476 91.4854 205.294C91.1383 205.112 90.8675 204.869 90.6729 204.564C90.4824 204.255 90.3872 203.911 90.3872 203.53C90.3872 203.161 90.4591 202.838 90.603 202.558C90.7469 202.275 90.9543 202.04 91.2251 201.854C91.4959 201.663 91.8218 201.52 92.2026 201.422C92.5835 201.325 93.0088 201.276 93.4785 201.276H94.8433ZM99.0518 202.165H100.321L98.3345 205.44H97.0649L99.0518 202.165ZM100.036 198.572H102.905V205.44H101.73V199.524H100.036C99.7013 199.524 99.4284 199.581 99.2168 199.696C99.0052 199.806 98.8507 199.95 98.7534 200.127C98.6561 200.305 98.6074 200.489 98.6074 200.68C98.6074 200.866 98.6519 201.046 98.7407 201.219C98.8296 201.388 98.9692 201.528 99.1597 201.638C99.3501 201.748 99.5955 201.803 99.896 201.803H102.048V202.768H99.896C99.5024 202.768 99.1533 202.715 98.8486 202.609C98.5439 202.503 98.2858 202.357 98.0742 202.171C97.8626 201.981 97.7018 201.759 97.5918 201.505C97.4818 201.247 97.4268 200.967 97.4268 200.667C97.4268 200.366 97.4839 200.089 97.5981 199.835C97.7166 199.581 97.8859 199.359 98.106 199.169C98.3302 198.978 98.6032 198.832 98.9248 198.731C99.2507 198.625 99.6209 198.572 100.036 198.572ZM110.77 204.602C111.049 204.602 111.307 204.545 111.544 204.431C111.781 204.317 111.976 204.16 112.128 203.961C112.28 203.758 112.367 203.528 112.388 203.269H113.505C113.484 203.676 113.347 204.054 113.093 204.406C112.843 204.753 112.515 205.034 112.109 205.25C111.703 205.461 111.256 205.567 110.77 205.567C110.253 205.567 109.803 205.476 109.417 205.294C109.037 205.112 108.719 204.863 108.465 204.545C108.216 204.228 108.027 203.864 107.9 203.453C107.778 203.039 107.716 202.601 107.716 202.14V201.873C107.716 201.412 107.778 200.976 107.9 200.565C108.027 200.151 108.216 199.785 108.465 199.467C108.719 199.15 109.037 198.9 109.417 198.718C109.803 198.536 110.253 198.445 110.77 198.445C111.307 198.445 111.777 198.555 112.179 198.775C112.581 198.991 112.896 199.287 113.125 199.664C113.357 200.036 113.484 200.46 113.505 200.933H112.388C112.367 200.65 112.287 200.394 112.147 200.165C112.012 199.937 111.825 199.755 111.588 199.62C111.356 199.48 111.083 199.41 110.77 199.41C110.41 199.41 110.107 199.482 109.862 199.626C109.621 199.766 109.428 199.956 109.284 200.197C109.145 200.434 109.043 200.699 108.979 200.991C108.92 201.278 108.891 201.572 108.891 201.873V202.14C108.891 202.44 108.92 202.736 108.979 203.028C109.039 203.32 109.138 203.585 109.278 203.822C109.422 204.059 109.614 204.249 109.855 204.393C110.101 204.533 110.406 204.602 110.77 204.602ZM116.755 204.729L118.666 198.572H119.923L117.168 206.5C117.104 206.67 117.02 206.852 116.914 207.046C116.812 207.245 116.681 207.433 116.521 207.611C116.36 207.789 116.165 207.933 115.937 208.043C115.712 208.157 115.444 208.214 115.13 208.214C115.037 208.214 114.919 208.202 114.775 208.176C114.631 208.151 114.529 208.13 114.47 208.113L114.464 207.161C114.498 207.165 114.551 207.169 114.623 207.173C114.699 207.182 114.752 207.186 114.781 207.186C115.048 207.186 115.274 207.15 115.46 207.078C115.647 207.01 115.803 206.894 115.93 206.729C116.061 206.568 116.174 206.346 116.267 206.062L116.755 204.729ZM115.353 198.572L117.136 203.904L117.441 205.142L116.597 205.574L114.07 198.572H115.353ZM124.931 203.879L127.267 198.572H128.397L125.337 205.44H124.525L121.478 198.572H122.608L124.931 203.879ZM122.265 198.572V205.44H121.091V198.572H122.265ZM127.559 205.44V198.572H128.74V205.44H127.559ZM134.58 203.879L136.916 198.572H138.045L134.986 205.44H134.173L131.126 198.572H132.256L134.58 203.879ZM131.914 198.572V205.44H130.739V198.572H131.914ZM137.208 205.44V198.572H138.388V205.44H137.208ZM144.33 204.266V200.73C144.33 200.46 144.275 200.225 144.165 200.026C144.059 199.823 143.898 199.666 143.682 199.556C143.466 199.446 143.2 199.391 142.882 199.391C142.586 199.391 142.326 199.442 142.102 199.543C141.882 199.645 141.708 199.778 141.581 199.943C141.458 200.108 141.397 200.286 141.397 200.476H140.223C140.223 200.231 140.286 199.988 140.413 199.746C140.54 199.505 140.722 199.287 140.959 199.093C141.2 198.894 141.488 198.737 141.822 198.623C142.161 198.504 142.537 198.445 142.952 198.445C143.451 198.445 143.892 198.53 144.272 198.699C144.658 198.868 144.958 199.124 145.174 199.467C145.394 199.806 145.504 200.231 145.504 200.743V203.942C145.504 204.171 145.523 204.414 145.561 204.672C145.603 204.93 145.665 205.153 145.745 205.339V205.44H144.52C144.461 205.305 144.414 205.125 144.38 204.901C144.347 204.672 144.33 204.461 144.33 204.266ZM144.533 201.276L144.545 202.101H143.358C143.024 202.101 142.726 202.129 142.463 202.184C142.201 202.235 141.981 202.313 141.803 202.419C141.625 202.525 141.49 202.658 141.397 202.819C141.304 202.975 141.257 203.159 141.257 203.371C141.257 203.587 141.306 203.784 141.403 203.961C141.501 204.139 141.647 204.281 141.841 204.387C142.04 204.488 142.284 204.539 142.571 204.539C142.931 204.539 143.248 204.463 143.523 204.31C143.799 204.158 144.016 203.972 144.177 203.752C144.342 203.532 144.431 203.318 144.444 203.111L144.945 203.676C144.916 203.853 144.835 204.05 144.704 204.266C144.573 204.482 144.397 204.689 144.177 204.888C143.961 205.083 143.703 205.246 143.403 205.377C143.107 205.504 142.772 205.567 142.4 205.567C141.934 205.567 141.526 205.476 141.175 205.294C140.828 205.112 140.557 204.869 140.362 204.564C140.172 204.255 140.077 203.911 140.077 203.53C140.077 203.161 140.149 202.838 140.292 202.558C140.436 202.275 140.644 202.04 140.915 201.854C141.185 201.663 141.511 201.52 141.892 201.422C142.273 201.325 142.698 201.276 143.168 201.276H144.533ZM153.14 202.159H151.877V201.435H153.045C153.371 201.435 153.629 201.395 153.819 201.314C154.01 201.23 154.145 201.113 154.226 200.965C154.306 200.817 154.346 200.644 154.346 200.445C154.346 200.267 154.3 200.1 154.207 199.943C154.118 199.782 153.974 199.653 153.775 199.556C153.576 199.454 153.309 199.404 152.975 199.404C152.704 199.404 152.459 199.452 152.239 199.55C152.019 199.643 151.843 199.772 151.712 199.937C151.585 200.098 151.521 200.28 151.521 200.483H150.347C150.347 200.064 150.466 199.704 150.703 199.404C150.944 199.099 151.263 198.864 151.661 198.699C152.063 198.534 152.501 198.452 152.975 198.452C153.373 198.452 153.728 198.496 154.042 198.585C154.359 198.669 154.628 198.796 154.848 198.966C155.068 199.131 155.235 199.338 155.349 199.588C155.468 199.833 155.527 200.119 155.527 200.445C155.527 200.677 155.472 200.898 155.362 201.105C155.252 201.312 155.093 201.496 154.886 201.657C154.678 201.814 154.427 201.936 154.13 202.025C153.838 202.114 153.508 202.159 153.14 202.159ZM151.877 201.714H153.14C153.551 201.714 153.912 201.754 154.226 201.835C154.539 201.911 154.801 202.025 155.013 202.178C155.224 202.33 155.383 202.518 155.489 202.743C155.599 202.963 155.654 203.217 155.654 203.504C155.654 203.826 155.588 204.116 155.457 204.374C155.33 204.628 155.148 204.844 154.911 205.021C154.674 205.199 154.391 205.335 154.061 205.428C153.735 205.521 153.373 205.567 152.975 205.567C152.531 205.567 152.099 205.491 151.68 205.339C151.261 205.186 150.916 204.952 150.646 204.634C150.375 204.313 150.239 203.904 150.239 203.409H151.414C151.414 203.616 151.479 203.813 151.61 203.999C151.742 204.186 151.924 204.336 152.156 204.45C152.393 204.564 152.666 204.621 152.975 204.621C153.305 204.621 153.58 204.571 153.8 204.469C154.02 204.368 154.185 204.232 154.295 204.063C154.41 203.894 154.467 203.71 154.467 203.511C154.467 203.252 154.416 203.045 154.314 202.889C154.213 202.732 154.056 202.618 153.845 202.546C153.637 202.47 153.371 202.432 153.045 202.432H151.877V201.714ZM161.227 204.266V200.73C161.227 200.46 161.172 200.225 161.062 200.026C160.956 199.823 160.795 199.666 160.58 199.556C160.364 199.446 160.097 199.391 159.78 199.391C159.484 199.391 159.223 199.442 158.999 199.543C158.779 199.645 158.605 199.778 158.479 199.943C158.356 200.108 158.294 200.286 158.294 200.476H157.12C157.12 200.231 157.184 199.988 157.311 199.746C157.438 199.505 157.619 199.287 157.856 199.093C158.098 198.894 158.385 198.737 158.72 198.623C159.058 198.504 159.435 198.445 159.85 198.445C160.349 198.445 160.789 198.53 161.17 198.699C161.555 198.868 161.855 199.124 162.071 199.467C162.291 199.806 162.401 200.231 162.401 200.743V203.942C162.401 204.171 162.42 204.414 162.458 204.672C162.501 204.93 162.562 205.153 162.643 205.339V205.44H161.417C161.358 205.305 161.312 205.125 161.278 204.901C161.244 204.672 161.227 204.461 161.227 204.266ZM161.43 201.276L161.443 202.101H160.256C159.922 202.101 159.623 202.129 159.361 202.184C159.098 202.235 158.878 202.313 158.701 202.419C158.523 202.525 158.388 202.658 158.294 202.819C158.201 202.975 158.155 203.159 158.155 203.371C158.155 203.587 158.203 203.784 158.301 203.961C158.398 204.139 158.544 204.281 158.739 204.387C158.938 204.488 159.181 204.539 159.469 204.539C159.828 204.539 160.146 204.463 160.421 204.31C160.696 204.158 160.914 203.972 161.075 203.752C161.24 203.532 161.329 203.318 161.341 203.111L161.843 203.676C161.813 203.853 161.733 204.05 161.602 204.266C161.47 204.482 161.295 204.689 161.075 204.888C160.859 205.083 160.601 205.246 160.3 205.377C160.004 205.504 159.67 205.567 159.297 205.567C158.832 205.567 158.424 205.476 158.072 205.294C157.725 205.112 157.454 204.869 157.26 204.564C157.069 204.255 156.974 203.911 156.974 203.53C156.974 203.161 157.046 202.838 157.19 202.558C157.334 202.275 157.541 202.04 157.812 201.854C158.083 201.663 158.409 201.52 158.79 201.422C159.17 201.325 159.596 201.276 160.065 201.276H161.43ZM165.524 198.572V205.44H164.35V198.572H165.524ZM170.031 198.572L166.775 202.508H165.131L164.953 201.479H166.299L168.603 198.572H170.031ZM168.768 205.44L166.242 202.33L166.997 201.479L170.26 205.44H168.768ZM175.332 204.266V200.73C175.332 200.46 175.277 200.225 175.167 200.026C175.061 199.823 174.9 199.666 174.684 199.556C174.468 199.446 174.202 199.391 173.884 199.391C173.588 199.391 173.328 199.442 173.104 199.543C172.883 199.645 172.71 199.778 172.583 199.943C172.46 200.108 172.399 200.286 172.399 200.476H171.225C171.225 200.231 171.288 199.988 171.415 199.746C171.542 199.505 171.724 199.287 171.961 199.093C172.202 198.894 172.49 198.737 172.824 198.623C173.163 198.504 173.539 198.445 173.954 198.445C174.453 198.445 174.894 198.53 175.274 198.699C175.66 198.868 175.96 199.124 176.176 199.467C176.396 199.806 176.506 200.231 176.506 200.743V203.942C176.506 204.171 176.525 204.414 176.563 204.672C176.605 204.93 176.667 205.153 176.747 205.339V205.44H175.522C175.463 205.305 175.416 205.125 175.382 204.901C175.348 204.672 175.332 204.461 175.332 204.266ZM175.535 201.276L175.547 202.101H174.36C174.026 202.101 173.728 202.129 173.465 202.184C173.203 202.235 172.983 202.313 172.805 202.419C172.627 202.525 172.492 202.658 172.399 202.819C172.306 202.975 172.259 203.159 172.259 203.371C172.259 203.587 172.308 203.784 172.405 203.961C172.503 204.139 172.649 204.281 172.843 204.387C173.042 204.488 173.285 204.539 173.573 204.539C173.933 204.539 174.25 204.463 174.525 204.31C174.8 204.158 175.018 203.972 175.179 203.752C175.344 203.532 175.433 203.318 175.446 203.111L175.947 203.676C175.918 203.853 175.837 204.05 175.706 204.266C175.575 204.482 175.399 204.689 175.179 204.888C174.963 205.083 174.705 205.246 174.405 205.377C174.109 205.504 173.774 205.567 173.402 205.567C172.936 205.567 172.528 205.476 172.177 205.294C171.83 205.112 171.559 204.869 171.364 204.564C171.174 204.255 171.079 203.911 171.079 203.53C171.079 203.161 171.151 202.838 171.294 202.558C171.438 202.275 171.646 202.04 171.917 201.854C172.187 201.663 172.513 201.52 172.894 201.422C173.275 201.325 173.7 201.276 174.17 201.276H175.535ZM180.917 202.159H179.654V201.435H180.822C181.148 201.435 181.406 201.395 181.597 201.314C181.787 201.23 181.923 201.113 182.003 200.965C182.083 200.817 182.124 200.644 182.124 200.445C182.124 200.267 182.077 200.1 181.984 199.943C181.895 199.782 181.751 199.653 181.552 199.556C181.353 199.454 181.087 199.404 180.752 199.404C180.482 199.404 180.236 199.452 180.016 199.55C179.796 199.643 179.62 199.772 179.489 199.937C179.362 200.098 179.299 200.28 179.299 200.483H178.125C178.125 200.064 178.243 199.704 178.48 199.404C178.721 199.099 179.041 198.864 179.438 198.699C179.84 198.534 180.278 198.452 180.752 198.452C181.15 198.452 181.506 198.496 181.819 198.585C182.136 198.669 182.405 198.796 182.625 198.966C182.845 199.131 183.012 199.338 183.126 199.588C183.245 199.833 183.304 200.119 183.304 200.445C183.304 200.677 183.249 200.898 183.139 201.105C183.029 201.312 182.87 201.496 182.663 201.657C182.456 201.814 182.204 201.936 181.908 202.025C181.616 202.114 181.286 202.159 180.917 202.159ZM179.654 201.714H180.917C181.328 201.714 181.69 201.754 182.003 201.835C182.316 201.911 182.578 202.025 182.79 202.178C183.002 202.33 183.16 202.518 183.266 202.743C183.376 202.963 183.431 203.217 183.431 203.504C183.431 203.826 183.366 204.116 183.234 204.374C183.107 204.628 182.925 204.844 182.688 205.021C182.451 205.199 182.168 205.335 181.838 205.428C181.512 205.521 181.15 205.567 180.752 205.567C180.308 205.567 179.876 205.491 179.458 205.339C179.039 205.186 178.694 204.952 178.423 204.634C178.152 204.313 178.017 203.904 178.017 203.409H179.191C179.191 203.616 179.257 203.813 179.388 203.999C179.519 204.186 179.701 204.336 179.934 204.45C180.171 204.564 180.444 204.621 180.752 204.621C181.083 204.621 181.358 204.571 181.578 204.469C181.798 204.368 181.963 204.232 182.073 204.063C182.187 203.894 182.244 203.71 182.244 203.511C182.244 203.252 182.193 203.045 182.092 202.889C181.99 202.732 181.834 202.618 181.622 202.546C181.415 202.47 181.148 202.432 180.822 202.432H179.654V201.714ZM189.004 204.266V200.73C189.004 200.46 188.949 200.225 188.839 200.026C188.734 199.823 188.573 199.666 188.357 199.556C188.141 199.446 187.875 199.391 187.557 199.391C187.261 199.391 187.001 199.442 186.776 199.543C186.556 199.645 186.383 199.778 186.256 199.943C186.133 200.108 186.072 200.286 186.072 200.476H184.897C184.897 200.231 184.961 199.988 185.088 199.746C185.215 199.505 185.397 199.287 185.634 199.093C185.875 198.894 186.163 198.737 186.497 198.623C186.836 198.504 187.212 198.445 187.627 198.445C188.126 198.445 188.566 198.53 188.947 198.699C189.332 198.868 189.633 199.124 189.849 199.467C190.069 199.806 190.179 200.231 190.179 200.743V203.942C190.179 204.171 190.198 204.414 190.236 204.672C190.278 204.93 190.34 205.153 190.42 205.339V205.44H189.195C189.136 205.305 189.089 205.125 189.055 204.901C189.021 204.672 189.004 204.461 189.004 204.266ZM189.208 201.276L189.22 202.101H188.033C187.699 202.101 187.401 202.129 187.138 202.184C186.876 202.235 186.656 202.313 186.478 202.419C186.3 202.525 186.165 202.658 186.072 202.819C185.979 202.975 185.932 203.159 185.932 203.371C185.932 203.587 185.981 203.784 186.078 203.961C186.175 204.139 186.321 204.281 186.516 204.387C186.715 204.488 186.958 204.539 187.246 204.539C187.606 204.539 187.923 204.463 188.198 204.31C188.473 204.158 188.691 203.972 188.852 203.752C189.017 203.532 189.106 203.318 189.119 203.111L189.62 203.676C189.59 203.853 189.51 204.05 189.379 204.266C189.248 204.482 189.072 204.689 188.852 204.888C188.636 205.083 188.378 205.246 188.078 205.377C187.781 205.504 187.447 205.567 187.075 205.567C186.609 205.567 186.201 205.476 185.85 205.294C185.503 205.112 185.232 204.869 185.037 204.564C184.847 204.255 184.751 203.911 184.751 203.53C184.751 203.161 184.823 202.838 184.967 202.558C185.111 202.275 185.319 202.04 185.589 201.854C185.86 201.663 186.186 201.52 186.567 201.422C186.948 201.325 187.373 201.276 187.843 201.276H189.208ZM196.837 200.242H197.675C198.086 200.242 198.424 200.174 198.691 200.038C198.962 199.899 199.163 199.71 199.294 199.474C199.429 199.232 199.497 198.961 199.497 198.661C199.497 198.306 199.438 198.007 199.319 197.766C199.201 197.525 199.023 197.343 198.786 197.22C198.549 197.097 198.249 197.036 197.885 197.036C197.555 197.036 197.263 197.102 197.009 197.233C196.759 197.36 196.562 197.542 196.418 197.779C196.279 198.016 196.209 198.295 196.209 198.617H195.035C195.035 198.147 195.153 197.719 195.39 197.334C195.627 196.949 195.959 196.642 196.387 196.414C196.818 196.185 197.318 196.071 197.885 196.071C198.443 196.071 198.932 196.171 199.351 196.37C199.77 196.564 200.096 196.856 200.329 197.245C200.561 197.631 200.678 198.111 200.678 198.686C200.678 198.919 200.623 199.169 200.513 199.435C200.407 199.698 200.24 199.943 200.011 200.172C199.787 200.4 199.495 200.589 199.135 200.737C198.776 200.881 198.344 200.953 197.84 200.953H196.837V200.242ZM196.837 201.206V200.502H197.84C198.429 200.502 198.915 200.572 199.3 200.711C199.685 200.851 199.988 201.037 200.208 201.27C200.432 201.503 200.589 201.759 200.678 202.038C200.771 202.313 200.817 202.588 200.817 202.863C200.817 203.295 200.743 203.678 200.595 204.012C200.451 204.346 200.246 204.63 199.979 204.863C199.717 205.095 199.408 205.271 199.053 205.39C198.697 205.508 198.31 205.567 197.891 205.567C197.489 205.567 197.11 205.51 196.755 205.396C196.404 205.282 196.093 205.117 195.822 204.901C195.551 204.681 195.339 204.412 195.187 204.095C195.035 203.773 194.958 203.407 194.958 202.996H196.133C196.133 203.318 196.203 203.599 196.342 203.841C196.486 204.082 196.689 204.27 196.952 204.406C197.218 204.537 197.531 204.602 197.891 204.602C198.251 204.602 198.56 204.541 198.818 204.418C199.08 204.291 199.281 204.101 199.421 203.847C199.565 203.593 199.637 203.274 199.637 202.889C199.637 202.503 199.556 202.188 199.396 201.943C199.235 201.693 199.006 201.509 198.71 201.391C198.418 201.268 198.073 201.206 197.675 201.206H196.837ZM203.921 201.041L202.982 200.8L203.445 196.198H208.187V197.284H204.442L204.163 199.797C204.332 199.7 204.546 199.609 204.804 199.524C205.066 199.44 205.367 199.397 205.705 199.397C206.132 199.397 206.515 199.471 206.854 199.62C207.193 199.763 207.48 199.971 207.717 200.242C207.958 200.512 208.143 200.838 208.27 201.219C208.396 201.6 208.46 202.025 208.46 202.495C208.46 202.939 208.399 203.348 208.276 203.72C208.157 204.092 207.978 204.418 207.736 204.698C207.495 204.973 207.19 205.186 206.822 205.339C206.458 205.491 206.029 205.567 205.534 205.567C205.161 205.567 204.808 205.516 204.474 205.415C204.144 205.309 203.847 205.15 203.585 204.939C203.327 204.723 203.115 204.456 202.95 204.139C202.789 203.817 202.688 203.441 202.646 203.009H203.763C203.813 203.356 203.915 203.648 204.067 203.885C204.22 204.122 204.419 204.302 204.664 204.425C204.914 204.543 205.204 204.602 205.534 204.602C205.813 204.602 206.061 204.554 206.276 204.456C206.492 204.359 206.674 204.219 206.822 204.037C206.97 203.856 207.083 203.635 207.159 203.377C207.239 203.119 207.279 202.829 207.279 202.508C207.279 202.216 207.239 201.945 207.159 201.695C207.078 201.446 206.958 201.228 206.797 201.041C206.64 200.855 206.448 200.711 206.219 200.61C205.991 200.504 205.728 200.451 205.432 200.451C205.039 200.451 204.74 200.504 204.537 200.61C204.338 200.716 204.133 200.859 203.921 201.041ZM215.849 204.602C216.128 204.602 216.386 204.545 216.623 204.431C216.86 204.317 217.055 204.16 217.207 203.961C217.359 203.758 217.446 203.528 217.467 203.269H218.584C218.563 203.676 218.426 204.054 218.172 204.406C217.922 204.753 217.594 205.034 217.188 205.25C216.782 205.461 216.335 205.567 215.849 205.567C215.332 205.567 214.882 205.476 214.497 205.294C214.116 205.112 213.798 204.863 213.544 204.545C213.295 204.228 213.106 203.864 212.979 203.453C212.857 203.039 212.795 202.601 212.795 202.14V201.873C212.795 201.412 212.857 200.976 212.979 200.565C213.106 200.151 213.295 199.785 213.544 199.467C213.798 199.15 214.116 198.9 214.497 198.718C214.882 198.536 215.332 198.445 215.849 198.445C216.386 198.445 216.856 198.555 217.258 198.775C217.66 198.991 217.975 199.287 218.204 199.664C218.436 200.036 218.563 200.46 218.584 200.933H217.467C217.446 200.65 217.366 200.394 217.226 200.165C217.091 199.937 216.904 199.755 216.667 199.62C216.435 199.48 216.162 199.41 215.849 199.41C215.489 199.41 215.186 199.482 214.941 199.626C214.7 199.766 214.507 199.956 214.363 200.197C214.224 200.434 214.122 200.699 214.059 200.991C213.999 201.278 213.97 201.572 213.97 201.873V202.14C213.97 202.44 213.999 202.736 214.059 203.028C214.118 203.32 214.217 203.585 214.357 203.822C214.501 204.059 214.693 204.249 214.935 204.393C215.18 204.533 215.485 204.602 215.849 204.602ZM219.594 202.082V201.936C219.594 201.441 219.666 200.982 219.81 200.559C219.953 200.132 220.161 199.761 220.432 199.448C220.702 199.131 221.03 198.885 221.416 198.712C221.801 198.534 222.232 198.445 222.71 198.445C223.193 198.445 223.627 198.534 224.012 198.712C224.401 198.885 224.731 199.131 225.002 199.448C225.277 199.761 225.486 200.132 225.63 200.559C225.774 200.982 225.846 201.441 225.846 201.936V202.082C225.846 202.578 225.774 203.037 225.63 203.46C225.486 203.883 225.277 204.253 225.002 204.571C224.731 204.884 224.403 205.129 224.018 205.307C223.637 205.481 223.206 205.567 222.723 205.567C222.241 205.567 221.807 205.481 221.422 205.307C221.037 205.129 220.707 204.884 220.432 204.571C220.161 204.253 219.953 203.883 219.81 203.46C219.666 203.037 219.594 202.578 219.594 202.082ZM220.768 201.936V202.082C220.768 202.425 220.808 202.749 220.889 203.054C220.969 203.354 221.09 203.621 221.25 203.853C221.416 204.086 221.621 204.27 221.866 204.406C222.112 204.537 222.397 204.602 222.723 204.602C223.045 204.602 223.326 204.537 223.567 204.406C223.813 204.27 224.016 204.086 224.177 203.853C224.338 203.621 224.458 203.354 224.539 203.054C224.623 202.749 224.666 202.425 224.666 202.082V201.936C224.666 201.598 224.623 201.278 224.539 200.978C224.458 200.673 224.335 200.405 224.17 200.172C224.01 199.935 223.806 199.749 223.561 199.613C223.32 199.478 223.036 199.41 222.71 199.41C222.389 199.41 222.105 199.478 221.86 199.613C221.619 199.749 221.416 199.935 221.25 200.172C221.09 200.405 220.969 200.673 220.889 200.978C220.808 201.278 220.768 201.598 220.768 201.936ZM231.267 203.879L233.603 198.572H234.733L231.673 205.44H230.861L227.814 198.572H228.944L231.267 203.879ZM228.601 198.572V205.44H227.427V198.572H228.601ZM233.895 205.44V198.572H235.076V205.44H233.895ZM236.656 202.082V201.936C236.656 201.441 236.728 200.982 236.872 200.559C237.016 200.132 237.223 199.761 237.494 199.448C237.765 199.131 238.093 198.885 238.478 198.712C238.863 198.534 239.295 198.445 239.773 198.445C240.255 198.445 240.689 198.534 241.074 198.712C241.464 198.885 241.794 199.131 242.064 199.448C242.34 199.761 242.549 200.132 242.693 200.559C242.837 200.982 242.909 201.441 242.909 201.936V202.082C242.909 202.578 242.837 203.037 242.693 203.46C242.549 203.883 242.34 204.253 242.064 204.571C241.794 204.884 241.466 205.129 241.081 205.307C240.7 205.481 240.268 205.567 239.786 205.567C239.303 205.567 238.869 205.481 238.484 205.307C238.099 205.129 237.769 204.884 237.494 204.571C237.223 204.253 237.016 203.883 236.872 203.46C236.728 203.037 236.656 202.578 236.656 202.082ZM237.831 201.936V202.082C237.831 202.425 237.871 202.749 237.951 203.054C238.032 203.354 238.152 203.621 238.313 203.853C238.478 204.086 238.683 204.27 238.929 204.406C239.174 204.537 239.46 204.602 239.786 204.602C240.107 204.602 240.389 204.537 240.63 204.406C240.875 204.27 241.078 204.086 241.239 203.853C241.4 203.621 241.521 203.354 241.601 203.054C241.686 202.749 241.728 202.425 241.728 202.082V201.936C241.728 201.598 241.686 201.278 241.601 200.978C241.521 200.673 241.398 200.405 241.233 200.172C241.072 199.935 240.869 199.749 240.624 199.613C240.382 199.478 240.099 199.41 239.773 199.41C239.451 199.41 239.168 199.478 238.922 199.613C238.681 199.749 238.478 199.935 238.313 200.172C238.152 200.405 238.032 200.673 237.951 200.978C237.871 201.278 237.831 201.598 237.831 201.936ZM249.041 201.549V202.501H245.41V201.549H249.041ZM245.657 198.572V205.44H244.483V198.572H245.657ZM249.993 198.572V205.44H248.812V198.572H249.993ZM253.154 203.58L256.321 198.572H257.502V205.44H256.321V200.432L253.154 205.44H251.986V198.572H253.154V203.58Z" fill="#383553"/>
<path d="M26.4 221.786C26.4 222.506 26.309 223.16 26.127 223.749C25.945 224.33 25.672 224.833 25.308 225.257C24.9527 225.682 24.5064 226.007 23.969 226.232C23.4404 226.458 22.825 226.57 22.123 226.57C21.395 226.57 20.7624 226.458 20.225 226.232C19.6877 225.998 19.2414 225.673 18.886 225.257C18.5307 224.833 18.2664 224.326 18.093 223.736C17.9197 223.147 17.833 222.493 17.833 221.773C17.833 220.82 17.989 219.988 18.301 219.277C18.613 218.567 19.0854 218.012 19.718 217.613C20.3594 217.215 21.1654 217.015 22.136 217.015C23.0634 217.015 23.8434 217.215 24.476 217.613C25.1087 218.003 25.5854 218.558 25.906 219.277C26.2354 219.988 26.4 220.824 26.4 221.786ZM19.068 221.786C19.068 222.566 19.1764 223.238 19.393 223.801C19.6097 224.365 19.9434 224.798 20.394 225.101C20.8534 225.405 21.4297 225.556 22.123 225.556C22.825 225.556 23.397 225.405 23.839 225.101C24.2897 224.798 24.6234 224.365 24.84 223.801C25.0567 223.238 25.165 222.566 25.165 221.786C25.165 220.616 24.9224 219.702 24.437 219.043C23.9517 218.376 23.1847 218.042 22.136 218.042C21.434 218.042 20.8534 218.194 20.394 218.497C19.9434 218.792 19.6097 219.221 19.393 219.784C19.1764 220.339 19.068 221.006 19.068 221.786ZM34.1903 219.472V226.44H33.0463V220.447H29.4453V226.44H28.3013V219.472H34.1903ZM41.7176 226.44H40.5606V220.421H38.5066C38.4199 221.522 38.3116 222.462 38.1816 223.242C38.0516 224.014 37.8869 224.642 37.6876 225.127C37.4883 225.613 37.2499 225.968 36.9726 226.193C36.6953 226.419 36.3703 226.531 35.9976 226.531C35.8849 226.531 35.7723 226.523 35.6596 226.505C35.5556 226.497 35.4689 226.475 35.3996 226.44V225.582C35.4516 225.6 35.5079 225.613 35.5686 225.621C35.6293 225.63 35.6899 225.634 35.7506 225.634C35.9413 225.634 36.1146 225.556 36.2706 225.4C36.4266 225.244 36.5653 225.006 36.6866 224.685C36.8166 224.365 36.9336 223.962 37.0376 223.476C37.1416 222.982 37.2326 222.402 37.3106 221.734C37.3886 221.067 37.4579 220.313 37.5186 219.472H41.7176V226.44ZM46.5682 219.355C47.4176 219.355 48.0459 219.542 48.4532 219.914C48.8606 220.287 49.0642 220.881 49.0642 221.695V226.44H48.2322L48.0112 225.452H47.9592C47.7599 225.704 47.5519 225.916 47.3352 226.089C47.1272 226.254 46.8846 226.375 46.6072 226.453C46.3386 226.531 46.0092 226.57 45.6192 226.57C45.2032 226.57 44.8262 226.497 44.4882 226.349C44.1589 226.202 43.8989 225.977 43.7082 225.673C43.5176 225.361 43.4222 224.971 43.4222 224.503C43.4222 223.81 43.6952 223.277 44.2412 222.904C44.7872 222.523 45.6279 222.315 46.7632 222.28L47.9462 222.241V221.825C47.9462 221.245 47.8206 220.842 47.5692 220.616C47.3179 220.391 46.9626 220.278 46.5032 220.278C46.1392 220.278 45.7926 220.335 45.4632 220.447C45.1339 220.551 44.8262 220.673 44.5402 220.811L44.1892 219.953C44.4926 219.789 44.8522 219.65 45.2682 219.537C45.6842 219.416 46.1176 219.355 46.5682 219.355ZM46.9062 223.073C46.0396 223.108 45.4372 223.247 45.0992 223.489C44.7699 223.732 44.6052 224.074 44.6052 224.516C44.6052 224.906 44.7222 225.192 44.9562 225.374C45.1989 225.556 45.5066 225.647 45.8792 225.647C46.4686 225.647 46.9582 225.487 47.3482 225.166C47.7382 224.837 47.9332 224.334 47.9332 223.658V223.034L46.9062 223.073ZM56.0263 220.434H53.7513V226.44H52.6203V220.434H50.3713V219.472H56.0263V220.434ZM60.0379 219.355C60.8873 219.355 61.5156 219.542 61.9229 219.914C62.3303 220.287 62.5339 220.881 62.5339 221.695V226.44H61.7019L61.4809 225.452H61.4289C61.2296 225.704 61.0216 225.916 60.8049 226.089C60.5969 226.254 60.3543 226.375 60.0769 226.453C59.8083 226.531 59.4789 226.57 59.0889 226.57C58.6729 226.57 58.2959 226.497 57.9579 226.349C57.6286 226.202 57.3686 225.977 57.1779 225.673C56.9873 225.361 56.8919 224.971 56.8919 224.503C56.8919 223.81 57.1649 223.277 57.7109 222.904C58.2569 222.523 59.0976 222.315 60.2329 222.28L61.4159 222.241V221.825C61.4159 221.245 61.2903 220.842 61.0389 220.616C60.7876 220.391 60.4323 220.278 59.9729 220.278C59.6089 220.278 59.2623 220.335 58.9329 220.447C58.6036 220.551 58.2959 220.673 58.0099 220.811L57.6589 219.953C57.9623 219.789 58.3219 219.65 58.7379 219.537C59.1539 219.416 59.5873 219.355 60.0379 219.355ZM60.3759 223.073C59.5093 223.108 58.9069 223.247 58.5689 223.489C58.2396 223.732 58.0749 224.074 58.0749 224.516C58.0749 224.906 58.1919 225.192 58.4259 225.374C58.6686 225.556 58.9763 225.647 59.3489 225.647C59.9383 225.647 60.4279 225.487 60.8179 225.166C61.2079 224.837 61.4029 224.334 61.4029 223.658V223.034L60.3759 223.073ZM69.207 219.472V222.371H72.99V219.472H74.134V226.44H72.99V223.333H69.207V226.44H68.063V219.472H69.207ZM78.9794 219.355C79.8287 219.355 80.457 219.542 80.8644 219.914C81.2717 220.287 81.4754 220.881 81.4754 221.695V226.44H80.6434L80.4224 225.452H80.3704C80.171 225.704 79.963 225.916 79.7464 226.089C79.5384 226.254 79.2957 226.375 79.0184 226.453C78.7497 226.531 78.4204 226.57 78.0304 226.57C77.6144 226.57 77.2374 226.497 76.8994 226.349C76.57 226.202 76.31 225.977 76.1194 225.673C75.9287 225.361 75.8334 224.971 75.8334 224.503C75.8334 223.81 76.1064 223.277 76.6524 222.904C77.1984 222.523 78.039 222.315 79.1744 222.28L80.3574 222.241V221.825C80.3574 221.245 80.2317 220.842 79.9804 220.616C79.729 220.391 79.3737 220.278 78.9144 220.278C78.5504 220.278 78.2037 220.335 77.8744 220.447C77.545 220.551 77.2374 220.673 76.9514 220.811L76.6004 219.953C76.9037 219.789 77.2634 219.65 77.6794 219.537C78.0954 219.416 78.5287 219.355 78.9794 219.355ZM79.3174 223.073C78.4507 223.108 77.8484 223.247 77.5104 223.489C77.181 223.732 77.0164 224.074 77.0164 224.516C77.0164 224.906 77.1334 225.192 77.3674 225.374C77.61 225.556 77.9177 225.647 78.2904 225.647C78.8797 225.647 79.3694 225.487 79.7594 225.166C80.1494 224.837 80.3444 224.334 80.3444 223.658V223.034L79.3174 223.073ZM88.9315 226.44H87.7745V220.421H85.7205C85.6338 221.522 85.5255 222.462 85.3955 223.242C85.2655 224.014 85.1008 224.642 84.9015 225.127C84.7021 225.613 84.4638 225.968 84.1865 226.193C83.9091 226.419 83.5841 226.531 83.2115 226.531C83.0988 226.531 82.9861 226.523 82.8735 226.505C82.7695 226.497 82.6828 226.475 82.6135 226.44V225.582C82.6655 225.6 82.7218 225.613 82.7825 225.621C82.8431 225.63 82.9038 225.634 82.9645 225.634C83.1551 225.634 83.3285 225.556 83.4845 225.4C83.6405 225.244 83.7791 225.006 83.9005 224.685C84.0305 224.365 84.1475 223.962 84.2515 223.476C84.3555 222.982 84.4465 222.402 84.5245 221.734C84.6025 221.067 84.6718 220.313 84.7325 219.472H88.9315V226.44ZM92.2221 223.723C92.2221 223.801 92.2178 223.914 92.2091 224.061C92.2091 224.2 92.2048 224.352 92.1961 224.516C92.1874 224.672 92.1788 224.824 92.1701 224.971C92.1614 225.11 92.1528 225.223 92.1441 225.309L95.8751 219.472H97.2791V226.44H96.2131V222.332C96.2131 222.194 96.2131 222.012 96.2131 221.786C96.2218 221.561 96.2304 221.34 96.2391 221.123C96.2478 220.898 96.2564 220.729 96.2651 220.616L92.5601 226.44H91.1431V219.472H92.2221V223.723ZM100.498 222.007C100.498 222.415 100.61 222.718 100.836 222.917C101.07 223.108 101.403 223.203 101.837 223.203C102.27 223.203 102.664 223.138 103.02 223.008C103.375 222.87 103.739 222.688 104.112 222.462V219.472H105.256V226.44H104.112V223.333C103.722 223.585 103.336 223.784 102.955 223.931C102.582 224.07 102.131 224.139 101.603 224.139C100.892 224.139 100.337 223.953 99.9386 223.58C99.5486 223.208 99.3536 222.709 99.3536 222.085V219.472H100.498V222.007ZM108.613 219.472V222.371H112.396V219.472H113.54V226.44H112.396V223.333H108.613V226.44H107.469V219.472H108.613ZM116.826 223.723C116.826 223.801 116.821 223.914 116.813 224.061C116.813 224.2 116.808 224.352 116.8 224.516C116.791 224.672 116.782 224.824 116.774 224.971C116.765 225.11 116.756 225.223 116.748 225.309L120.479 219.472H121.883V226.44H120.817V222.332C120.817 222.194 120.817 222.012 120.817 221.786C120.825 221.561 120.834 221.34 120.843 221.123C120.851 220.898 120.86 220.729 120.869 220.616L117.164 226.44H115.747V219.472H116.826V223.723ZM131.575 219.472V226.44H130.548V221.994C130.548 221.812 130.552 221.622 130.561 221.422C130.578 221.223 130.596 221.028 130.613 220.837H130.574L128.299 226.44H127.337L125.127 220.837H125.088C125.105 221.028 125.114 221.223 125.114 221.422C125.123 221.622 125.127 221.825 125.127 222.033V226.44H124.1V219.472H125.621L127.818 225.075L130.054 219.472H131.575ZM134.878 223.723C134.878 223.801 134.874 223.914 134.865 224.061C134.865 224.2 134.861 224.352 134.852 224.516C134.844 224.672 134.835 224.824 134.826 224.971C134.818 225.11 134.809 225.223 134.8 225.309L138.531 219.472H139.935V226.44H138.869V222.332C138.869 222.194 138.869 222.012 138.869 221.786C138.878 221.561 138.887 221.34 138.895 221.123C138.904 220.898 138.913 220.729 138.921 220.616L135.216 226.44H133.799V219.472H134.878V223.723ZM146.609 223.723C146.609 223.801 146.604 223.914 146.596 224.061C146.596 224.2 146.591 224.352 146.583 224.516C146.574 224.672 146.565 224.824 146.557 224.971C146.548 225.11 146.539 225.223 146.531 225.309L150.262 219.472H151.666V226.44H150.6V222.332C150.6 222.194 150.6 222.012 150.6 221.786C150.608 221.561 150.617 221.34 150.626 221.123C150.634 220.898 150.643 220.729 150.652 220.616L146.947 226.44H145.53V219.472H146.609V223.723ZM159.187 226.44H158.03V220.421H155.976C155.89 221.522 155.781 222.462 155.651 223.242C155.521 224.014 155.357 224.642 155.157 225.127C154.958 225.613 154.72 225.968 154.442 226.193C154.165 226.419 153.84 226.531 153.467 226.531C153.355 226.531 153.242 226.523 153.129 226.505C153.025 226.497 152.939 226.475 152.869 226.44V225.582C152.921 225.6 152.978 225.613 153.038 225.621C153.099 225.63 153.16 225.634 153.22 225.634C153.411 225.634 153.584 225.556 153.74 225.4C153.896 225.244 154.035 225.006 154.156 224.685C154.286 224.365 154.403 223.962 154.507 223.476C154.611 222.982 154.702 222.402 154.78 221.734C154.858 221.067 154.928 220.313 154.988 219.472H159.187V226.44ZM162.478 223.723C162.478 223.801 162.474 223.914 162.465 224.061C162.465 224.2 162.461 224.352 162.452 224.516C162.443 224.672 162.435 224.824 162.426 224.971C162.417 225.11 162.409 225.223 162.4 225.309L166.131 219.472H167.535V226.44H166.469V222.332C166.469 222.194 166.469 222.012 166.469 221.786C166.478 221.561 166.486 221.34 166.495 221.123C166.504 220.898 166.512 220.729 166.521 220.616L162.816 226.44H161.399V219.472H162.478V223.723ZM179.187 222.943C179.187 223.524 179.109 224.04 178.953 224.49C178.806 224.932 178.589 225.309 178.303 225.621C178.026 225.933 177.684 226.172 177.276 226.336C176.878 226.492 176.431 226.57 175.937 226.57C175.478 226.57 175.053 226.492 174.663 226.336C174.273 226.172 173.935 225.933 173.649 225.621C173.363 225.309 173.138 224.932 172.973 224.49C172.817 224.04 172.739 223.524 172.739 222.943C172.739 222.172 172.869 221.522 173.129 220.993C173.389 220.456 173.762 220.049 174.247 219.771C174.733 219.485 175.309 219.342 175.976 219.342C176.609 219.342 177.164 219.485 177.64 219.771C178.126 220.049 178.503 220.456 178.771 220.993C179.049 221.522 179.187 222.172 179.187 222.943ZM173.922 222.943C173.922 223.489 173.992 223.966 174.13 224.373C174.278 224.772 174.503 225.08 174.806 225.296C175.11 225.513 175.495 225.621 175.963 225.621C176.431 225.621 176.817 225.513 177.12 225.296C177.424 225.08 177.645 224.772 177.783 224.373C177.931 223.966 178.004 223.489 178.004 222.943C178.004 222.389 177.931 221.916 177.783 221.526C177.636 221.136 177.411 220.837 177.107 220.629C176.813 220.413 176.427 220.304 175.95 220.304C175.24 220.304 174.724 220.538 174.403 221.006C174.083 221.474 173.922 222.12 173.922 222.943ZM182.145 219.472V222.371H185.928V219.472H187.072V226.44H185.928V223.333H182.145V226.44H181.001V219.472H182.145ZM194.582 226.44H193.425V220.421H191.371C191.284 221.522 191.176 222.462 191.046 223.242C190.916 224.014 190.751 224.642 190.552 225.127C190.353 225.613 190.114 225.968 189.837 226.193C189.56 226.419 189.235 226.531 188.862 226.531C188.749 226.531 188.637 226.523 188.524 226.505C188.42 226.497 188.333 226.475 188.264 226.44V225.582C188.316 225.6 188.372 225.613 188.433 225.621C188.494 225.63 188.554 225.634 188.615 225.634C188.806 225.634 188.979 225.556 189.135 225.4C189.291 225.244 189.43 225.006 189.551 224.685C189.681 224.365 189.798 223.962 189.902 223.476C190.006 222.982 190.097 222.402 190.175 221.734C190.253 221.067 190.322 220.313 190.383 219.472H194.582V226.44ZM199.432 219.355C200.282 219.355 200.91 219.542 201.317 219.914C201.725 220.287 201.928 220.881 201.928 221.695V226.44H201.096L200.875 225.452H200.823C200.624 225.704 200.416 225.916 200.199 226.089C199.991 226.254 199.749 226.375 199.471 226.453C199.203 226.531 198.873 226.57 198.483 226.57C198.067 226.57 197.69 226.497 197.352 226.349C197.023 226.202 196.763 225.977 196.572 225.673C196.382 225.361 196.286 224.971 196.286 224.503C196.286 223.81 196.559 223.277 197.105 222.904C197.651 222.523 198.492 222.315 199.627 222.28L200.81 222.241V221.825C200.81 221.245 200.685 220.842 200.433 220.616C200.182 220.391 199.827 220.278 199.367 220.278C199.003 220.278 198.657 220.335 198.327 220.447C197.998 220.551 197.69 220.673 197.404 220.811L197.053 219.953C197.357 219.789 197.716 219.65 198.132 219.537C198.548 219.416 198.982 219.355 199.432 219.355ZM199.77 223.073C198.904 223.108 198.301 223.247 197.963 223.489C197.634 223.732 197.469 224.074 197.469 224.516C197.469 224.906 197.586 225.192 197.82 225.374C198.063 225.556 198.371 225.647 198.743 225.647C199.333 225.647 199.822 225.487 200.212 225.166C200.602 224.837 200.797 224.334 200.797 223.658V223.034L199.77 223.073ZM209.723 216.586C209.688 217.02 209.58 217.384 209.398 217.678C209.224 217.973 208.964 218.194 208.618 218.341C208.271 218.489 207.82 218.562 207.266 218.562C206.702 218.562 206.247 218.489 205.901 218.341C205.563 218.194 205.316 217.977 205.16 217.691C205.004 217.397 204.908 217.028 204.874 216.586H205.94C205.983 217.054 206.104 217.371 206.304 217.535C206.512 217.691 206.841 217.769 207.292 217.769C207.69 217.769 208.002 217.687 208.228 217.522C208.462 217.349 208.6 217.037 208.644 216.586H209.723ZM205.16 223.723C205.16 223.801 205.155 223.914 205.147 224.061C205.147 224.2 205.142 224.352 205.134 224.516C205.125 224.672 205.116 224.824 205.108 224.971C205.099 225.11 205.09 225.223 205.082 225.309L208.813 219.472H210.217V226.44H209.151V222.332C209.151 222.194 209.151 222.012 209.151 221.786C209.159 221.561 209.168 221.34 209.177 221.123C209.185 220.898 209.194 220.729 209.203 220.616L205.498 226.44H204.081V219.472H205.16V223.723ZM213.578 219.472V222.371H217.361V219.472H218.505V226.44H217.361V223.333H213.578V226.44H212.434V219.472H213.578Z" fill="#383553"/>
</svg>
