<svg width="24" height="18" viewBox="0 0 24 18" fill="none" xmlns="http://www.w3.org/2000/svg">
<path d="M12.0002 6C11.0002 6 10.1002 6.4 9.3002 7.1C8.5002 7.8 8.2002 8.8 8.2002 9.8C8.2002 10.8 8.6002 11.7 9.3002 12.5C10.0002 13.3 11.0002 13.6 12.0002 13.6C13.0002 13.6 13.9002 13.2 14.7002 12.5C15.5002 11.8 15.8002 10.8 15.8002 9.8C15.8002 8.8 15.4002 7.9 14.7002 7.1C14.0002 6.3 13.0002 6 12.0002 6Z" fill="url(#paint0_linear_5810_984)"/>
<path d="M23.1 3.9C22.6 3.3 21.8 3 21 3H19.2C18.4 3 17.6 2.7 17.1 2.1L15.9 0.9C15.3 0.3 14.6 0 13.8 0H10.3C9.4 0 8.7 0.3 8.1 0.9L6.9 2.1C6.3 2.7 5.6 3 4.8 3H3C2.2 3 1.4 3.3 0.9 3.9C0.3 4.4 0 5.2 0 6V15C0 15.8 0.3 16.6 0.9 17.1C1.4 17.7 2.2 18 3 18H21C21.8 18 22.6 17.7 23.1 17.1C23.7 16.5 24 15.8 24 15V6C24 5.2 23.7 4.4 23.1 3.9ZM4.3 7.3C4.2 7.4 4 7.5 3.8 7.5C3.6 7.5 3.4 7.4 3.3 7.3C3.1 7.1 3 6.9 3 6.8C3 6.7 3.1 6.4 3.2 6.3C3.3 6.2 3.6 6 3.8 6C4 6 4.2 6.1 4.3 6.2C4.4 6.3 4.5 6.5 4.5 6.7C4.5 6.9 4.4 7.1 4.3 7.3ZM15.7 13.5C14.7 14.5 13.4 15 12 15C10.6 15 9.3 14.4 8.3 13.5C7.3 12.5 6.8 11.2 6.8 9.8C6.8 8.4 7.3 7 8.3 6C9.3 5 10.6 4.5 12 4.5C13.4 4.5 14.7 5.1 15.7 6C16.7 7 17.2 8.3 17.2 9.7C17.2 11.1 16.7 12.5 15.7 13.5Z" fill="url(#paint1_linear_5810_984)"/>
<defs>
<linearGradient id="paint0_linear_5810_984" x1="15.8774" y1="6.16944" x2="9.17263" y2="14.4986" gradientUnits="userSpaceOnUse">
<stop stop-color="#4839C3"/>
<stop offset="1" stop-color="#3CE682"/>
</linearGradient>
<linearGradient id="paint1_linear_5810_984" x1="22" y1="8.37776e-07" x2="0.500001" y2="18" gradientUnits="userSpaceOnUse">
<stop stop-color="#465BB7"/>
<stop offset="1" stop-color="#3FC190"/>
</linearGradient>
</defs>
</svg>
