<svg width="25" height="24" viewBox="0 0 25 24" fill="none" xmlns="http://www.w3.org/2000/svg">
<path d="M15.8141 11.75H17.0216L16.1676 10.8964L12.9472 7.67745C12.9239 7.65414 12.9054 7.62648 12.8928 7.59603C12.8802 7.56559 12.8737 7.53296 12.8737 7.5C12.8737 7.46704 12.8802 7.43441 12.8928 7.40396C12.9054 7.37352 12.9239 7.34585 12.9472 7.32255C12.9705 7.29925 12.9982 7.28076 13.0286 7.26816C13.059 7.25554 13.0917 7.24905 13.1246 7.24905C13.1576 7.24905 13.1902 7.25554 13.2207 7.26815L13.412 6.80621L13.2207 7.26816C13.2511 7.28076 13.2788 7.29925 13.3021 7.32255L17.8021 11.8226L17.8025 11.823C17.8258 11.8462 17.8443 11.8738 17.8569 11.9042C17.8695 11.9346 17.876 11.9671 17.876 12C17.876 12.0329 17.8695 12.0654 17.8569 12.0958C17.8443 12.1262 17.8258 12.1538 17.8025 12.177L17.8021 12.1774L13.3021 16.6774C13.255 16.7245 13.1912 16.7509 13.1246 16.7509C13.0581 16.7509 12.9943 16.7245 12.9472 16.6774C12.9001 16.6304 12.8737 16.5666 12.8737 16.5C12.8737 16.4334 12.9001 16.3696 12.9472 16.3226L16.1676 13.1036L17.0216 12.25H15.8141L7.12464 12.25C7.05833 12.25 6.99474 12.2237 6.94786 12.1768C6.90098 12.1299 6.87464 12.0663 6.87464 12C6.87464 11.9337 6.90098 11.8701 6.94786 11.8232C6.99474 11.7763 7.05833 11.75 7.12464 11.75L15.8141 11.75Z" fill="white" stroke="white"/>
</svg>
