<svg width="24" height="24" viewBox="0 0 24 24" fill="none" xmlns="http://www.w3.org/2000/svg">
<path d="M21.1629 8.75511H19.0804L15.4986 3.25741C15.332 3.00751 15.0821 2.92421 14.8322 3.09081C14.5823 3.25741 14.499 3.5906 14.6656 3.7572L17.9142 8.75511H6.08582L9.33446 3.7572C9.50106 3.5073 9.41776 3.25741 9.16786 3.09081C8.91797 2.92421 8.58477 3.00751 8.50147 3.17411L4.91964 8.75511H2.83717C2.08748 8.75511 1.50439 9.4215 1.50439 10.1712V10.7543C1.50439 11.504 2.00419 12.0871 2.67057 12.1704L3.50356 18.9175C3.67016 20.0837 4.58644 21 5.66932 21H18.3307C19.4136 21 20.3299 20.0837 20.4965 18.9175L21.3295 12.1704C21.9958 12.0871 22.4956 11.504 22.4956 10.7543V10.0879C22.4956 9.3382 21.9125 8.75511 21.1629 8.75511ZM8.16828 17.4182V13.0866C8.16828 12.8367 8.41818 12.5868 8.66807 12.5868C8.91797 12.5868 9.16786 12.8367 9.16786 13.0866V17.4182C9.16786 17.6681 8.91797 17.918 8.66807 17.918C8.41818 17.918 8.16828 17.6681 8.16828 17.4182ZM11.5002 17.4182V13.0866C11.5002 12.8367 11.7501 12.5868 12 12.5868C12.2499 12.5868 12.4998 12.8367 12.4998 13.0866V17.4182C12.4998 17.6681 12.2499 17.918 12 17.918C11.7501 17.918 11.5002 17.6681 11.5002 17.4182ZM15.915 17.4182C15.915 17.6681 15.6652 17.918 15.4153 17.918C15.1654 17.918 14.9155 17.6681 14.9155 17.4182V13.0866C14.9155 12.8367 15.1654 12.5868 15.4153 12.5868C15.6652 12.5868 15.915 12.8367 15.915 13.0866V17.4182Z" fill="url(#paint0_linear_5810_3009)"/>
<defs>
<linearGradient id="paint0_linear_5810_3009" x1="19" y1="3" x2="4" y2="21" gradientUnits="userSpaceOnUse">
<stop stop-color="#4839C3"/>
<stop offset="1" stop-color="#3CE682"/>
</linearGradient>
</defs>
</svg>
