<svg width="24" height="24" viewBox="0 0 24 24" fill="none" xmlns="http://www.w3.org/2000/svg">
<path d="M14.5 16V18C14.5 18.5304 14.2805 19.0391 13.8898 19.4142C13.4991 19.7893 12.9692 20 12.4167 20H4.08333C3.5308 20 3.0009 19.7893 2.61019 19.4142C2.21949 19.0391 2 18.5304 2 18V6C2 5.46957 2.21949 4.96086 2.61019 4.58579C3.0009 4.21071 3.5308 4 4.08333 4H12C13.1505 4 14.5 4.8955 14.5 6V8M17.8333 16L22 12L17.8333 8M7.83333 12H14.5H21.1667" stroke="#4839C3" stroke-width="1.5" stroke-linecap="round" stroke-linejoin="round"/>
</svg>
