<svg width="16" height="16" viewBox="0 0 16 16" fill="none" xmlns="http://www.w3.org/2000/svg">
<mask id="path-1-inside-1_5863_2437" fill="white">
<path d="M2.33388 5.73205L7.64988 10.914C7.74325 11.0051 7.86849 11.056 7.99888 11.056C8.12927 11.056 8.2545 11.0051 8.34788 10.914L13.6659 5.73205C13.7094 5.68965 13.744 5.63896 13.7677 5.58297C13.7913 5.52698 13.8035 5.46682 13.8035 5.40605C13.8035 5.34527 13.7913 5.28512 13.7677 5.22913C13.744 5.17313 13.7094 5.12244 13.6659 5.08005C13.5766 4.99283 13.4567 4.94399 13.3319 4.94399C13.2071 4.94399 13.0872 4.99283 12.9979 5.08005L7.99888 9.95305L3.00088 5.08005C2.91163 4.99312 2.79196 4.94448 2.66738 4.94448C2.54279 4.94448 2.42313 4.99312 2.33388 5.08005C2.29034 5.12244 2.25573 5.17313 2.2321 5.22913C2.20846 5.28512 2.19629 5.34527 2.19629 5.40605C2.19629 5.46682 2.20846 5.52698 2.2321 5.58297C2.25573 5.63896 2.29034 5.68965 2.33388 5.73205Z"/>
</mask>
<path d="M2.33388 5.73205L7.64988 10.914C7.74325 11.0051 7.86849 11.056 7.99888 11.056C8.12927 11.056 8.2545 11.0051 8.34788 10.914L13.6659 5.73205C13.7094 5.68965 13.744 5.63896 13.7677 5.58297C13.7913 5.52698 13.8035 5.46682 13.8035 5.40605C13.8035 5.34527 13.7913 5.28512 13.7677 5.22913C13.744 5.17313 13.7094 5.12244 13.6659 5.08005C13.5766 4.99283 13.4567 4.94399 13.3319 4.94399C13.2071 4.94399 13.0872 4.99283 12.9979 5.08005L7.99888 9.95305L3.00088 5.08005C2.91163 4.99312 2.79196 4.94448 2.66738 4.94448C2.54279 4.94448 2.42313 4.99312 2.33388 5.08005C2.29034 5.12244 2.25573 5.17313 2.2321 5.22913C2.20846 5.28512 2.19629 5.34527 2.19629 5.40605C2.19629 5.46682 2.20846 5.52698 2.2321 5.58297C2.25573 5.63896 2.29034 5.68965 2.33388 5.73205Z" fill="#4839C3"/>
<path d="M7.64988 10.914L6.81225 11.7733L6.81228 11.7734L7.64988 10.914ZM8.34788 10.914L7.51041 10.0546L7.51028 10.0547L8.34788 10.914ZM13.6659 5.73205L12.8288 4.87227L12.8284 4.8726L13.6659 5.73205ZM13.6659 5.08005L12.8274 5.93849L12.8288 5.93983L13.6659 5.08005ZM13.3319 4.94399L13.3319 3.744L13.3319 4.94399ZM12.9979 5.08005L13.8355 5.93934L13.8364 5.93849L12.9979 5.08005ZM7.99888 9.95305L7.16116 10.8123L7.9988 11.6289L8.83651 10.8123L7.99888 9.95305ZM3.00088 5.08005L3.83859 4.22084L3.83812 4.22038L3.00088 5.08005ZM2.66738 4.94448V3.74448V4.94448ZM2.33388 5.08005L3.171 5.93983L3.17112 5.93972L2.33388 5.08005ZM1.49625 6.59134L6.81225 11.7733L8.48751 10.0548L3.17151 4.87276L1.49625 6.59134ZM6.81228 11.7734C7.12975 12.0828 7.55555 12.256 7.99888 12.256V9.856C8.18143 9.856 8.35676 9.92731 8.48748 10.0547L6.81228 11.7734ZM7.99888 12.256C8.44222 12.256 8.86801 12.0828 9.18548 11.7734L7.51028 10.0547C7.641 9.92731 7.81633 9.856 7.99888 9.856V12.256ZM9.18535 11.7735L14.5033 6.59149L12.8284 4.8726L7.51041 10.0546L9.18535 11.7735ZM14.503 6.59183C14.6614 6.43762 14.7873 6.25325 14.8732 6.04958L12.6621 5.11636C12.7008 5.02468 12.7575 4.94168 12.8288 4.87227L14.503 6.59183ZM14.8732 6.04958C14.9592 5.84591 15.0035 5.6271 15.0035 5.40605L12.6035 5.40605C12.6035 5.30655 12.6234 5.20805 12.6621 5.11636L14.8732 6.04958ZM15.0035 5.40605C15.0035 5.185 14.9592 4.96619 14.8732 4.76251L12.6621 5.69573C12.6234 5.60405 12.6035 5.50555 12.6035 5.40605L15.0035 5.40605ZM14.8732 4.76251C14.7873 4.55885 14.6614 4.37448 14.503 4.22027L12.8288 5.93983C12.7575 5.87041 12.7008 5.78742 12.6621 5.69573L14.8732 4.76251ZM14.5044 4.2216C14.1909 3.91541 13.7701 3.744 13.3319 3.744L13.3319 6.144C13.1433 6.144 12.9623 6.07024 12.8274 5.93849L14.5044 4.2216ZM13.3319 3.744C12.8937 3.744 12.4729 3.91542 12.1594 4.2216L13.8364 5.93849C13.7015 6.07024 13.5204 6.144 13.3319 6.144L13.3319 3.744ZM12.1602 4.22076L7.16125 9.09376L8.83651 10.8123L13.8355 5.93934L12.1602 4.22076ZM8.8366 9.09384L3.83859 4.22084L2.16316 5.93925L7.16116 10.8123L8.8366 9.09384ZM3.83812 4.22038C3.5248 3.91524 3.10473 3.74448 2.66738 3.74448L2.66738 6.14448C2.4792 6.14448 2.29845 6.07101 2.16364 5.93972L3.83812 4.22038ZM2.66738 3.74448C2.23003 3.74448 1.80996 3.91524 1.49664 4.22038L3.17112 5.93972C3.03631 6.07101 2.85556 6.14448 2.66738 6.14448L2.66738 3.74448ZM1.49675 4.22027C1.33837 4.37448 1.21249 4.55885 1.12653 4.76251L3.33766 5.69573C3.29897 5.78742 3.2423 5.87041 3.171 5.93983L1.49675 4.22027ZM1.12653 4.76251C1.04057 4.96618 0.996289 5.18499 0.996289 5.40605H3.39629C3.39629 5.50556 3.37636 5.60405 3.33766 5.69573L1.12653 4.76251ZM0.996289 5.40605C0.996289 5.62711 1.04057 5.84592 1.12653 6.04958L3.33766 5.11636C3.37635 5.20804 3.39629 5.30654 3.39629 5.40605H0.996289ZM1.12653 6.04958C1.21249 6.25325 1.33837 6.43762 1.49675 6.59183L3.171 4.87227C3.2423 4.94168 3.29897 5.02468 3.33766 5.11636L1.12653 6.04958Z" fill="#BCBDFF" mask="url(#path-1-inside-1_5863_2437)"/>
</svg>
