<svg width="12" height="8" viewBox="0 0 12 8" fill="none" xmlns="http://www.w3.org/2000/svg">
<mask id="path-1-inside-1_5903_10720" fill="white">
<path d="M11.6661 6.26792L6.35012 1.08592C6.25675 0.994907 6.13151 0.943969 6.00112 0.943969C5.87073 0.943969 5.7455 0.994907 5.65212 1.08592L0.334121 6.26792C0.290577 6.31032 0.255968 6.36101 0.232337 6.417C0.208706 6.47299 0.196531 6.53315 0.196531 6.59392C0.196531 6.65469 0.208706 6.71485 0.232337 6.77084C0.255968 6.82684 0.290577 6.87752 0.33412 6.91992C0.423419 7.00714 0.543294 7.05597 0.668121 7.05597C0.792948 7.05597 0.912822 7.00714 1.00212 6.91992L6.00112 2.04692L10.9991 6.91992C11.0884 7.00684 11.208 7.05549 11.3326 7.05549C11.4572 7.05549 11.5769 7.00684 11.6661 6.91992C11.7097 6.87752 11.7443 6.82684 11.7679 6.77084C11.7915 6.71485 11.8037 6.65469 11.8037 6.59392C11.8037 6.53315 11.7915 6.47299 11.7679 6.417C11.7443 6.36101 11.7097 6.31032 11.6661 6.26792Z"/>
</mask>
<path d="M11.6661 6.26792L6.35012 1.08592C6.25675 0.994907 6.13151 0.943969 6.00112 0.943969C5.87073 0.943969 5.7455 0.994907 5.65212 1.08592L0.334121 6.26792C0.290577 6.31032 0.255968 6.36101 0.232337 6.417C0.208706 6.47299 0.196531 6.53315 0.196531 6.59392C0.196531 6.65469 0.208706 6.71485 0.232337 6.77084C0.255968 6.82684 0.290577 6.87752 0.33412 6.91992C0.423419 7.00714 0.543294 7.05597 0.668121 7.05597C0.792948 7.05597 0.912822 7.00714 1.00212 6.91992L6.00112 2.04692L10.9991 6.91992C11.0884 7.00684 11.208 7.05549 11.3326 7.05549C11.4572 7.05549 11.5769 7.00684 11.6661 6.91992C11.7097 6.87752 11.7443 6.82684 11.7679 6.77084C11.7915 6.71485 11.8037 6.65469 11.8037 6.59392C11.8037 6.53315 11.7915 6.47299 11.7679 6.417C11.7443 6.36101 11.7097 6.31032 11.6661 6.26792Z" fill="#4839C3"/>
<path d="M6.35012 1.08592L7.18775 0.226632L7.18772 0.226603L6.35012 1.08592ZM5.65212 1.08592L6.48959 1.94537L6.48972 1.94524L5.65212 1.08592ZM0.334121 6.26792L1.17125 7.1277L1.17159 7.12737L0.334121 6.26792ZM0.33412 6.91992L1.17262 6.06147L1.17125 6.06014L0.33412 6.91992ZM0.668121 7.05597L0.668121 8.25597L0.668121 7.05597ZM1.00212 6.91992L0.16449 6.06063L0.163627 6.06148L1.00212 6.91992ZM6.00112 2.04692L6.83884 1.18772L6.0012 0.371033L5.16349 1.18763L6.00112 2.04692ZM10.9991 6.91992L10.1614 7.77913L10.1619 7.77959L10.9991 6.91992ZM11.3326 7.05549L11.3326 8.25549L11.3326 7.05549ZM11.6661 6.91992L10.829 6.06014L10.8289 6.06025L11.6661 6.91992ZM12.5037 5.40863L7.18775 0.226632L5.51249 1.94521L10.8285 7.12721L12.5037 5.40863ZM7.18772 0.226603C6.87025 -0.082844 6.44445 -0.256031 6.00112 -0.256031L6.00112 2.14397C5.81857 2.14397 5.64324 2.07266 5.51252 1.94524L7.18772 0.226603ZM6.00112 -0.256031C5.55778 -0.256031 5.13199 -0.0828424 4.81452 0.226603L6.48972 1.94524C6.359 2.07266 6.18367 2.14397 6.00112 2.14397L6.00112 -0.256031ZM4.81465 0.226474L-0.503347 5.40847L1.17159 7.12737L6.48959 1.94537L4.81465 0.226474ZM-0.503004 5.40814C-0.661385 5.56235 -0.787271 5.74672 -0.873228 5.95039L1.3379 6.88361C1.29921 6.97529 1.24254 7.05829 1.17125 7.1277L-0.503004 5.40814ZM-0.873228 5.95039C-0.959189 6.15406 -1.00347 6.37287 -1.00347 6.59392L1.39653 6.59392C1.39653 6.69342 1.3766 6.79192 1.3379 6.88361L-0.873228 5.95039ZM-1.00347 6.59392C-1.00347 6.81497 -0.95919 7.03378 -0.873228 7.23745L1.3379 6.30423C1.3766 6.39592 1.39653 6.49442 1.39653 6.59392L-1.00347 6.59392ZM-0.873228 7.23745C-0.787271 7.44112 -0.661385 7.62549 -0.503004 7.7797L1.17125 6.06014C1.24254 6.12956 1.29921 6.21255 1.3379 6.30423L-0.873228 7.23745ZM-0.504373 7.77837C-0.190898 8.08456 0.229918 8.25597 0.668121 8.25597L0.668121 5.85597C0.856669 5.85597 1.03773 5.92973 1.17261 6.06148L-0.504373 7.77837ZM0.668121 8.25597C1.10633 8.25597 1.52714 8.08455 1.84061 7.77837L0.163627 6.06148C0.298505 5.92973 0.47957 5.85597 0.668121 5.85597L0.668121 8.25597ZM1.83975 7.77921L6.83875 2.90621L5.16349 1.18763L0.16449 6.06063L1.83975 7.77921ZM5.1634 2.90613L10.1614 7.77913L11.8368 6.06072L6.83884 1.18772L5.1634 2.90613ZM10.1619 7.77959C10.4752 8.08473 10.8953 8.25549 11.3326 8.25549L11.3326 5.85549C11.5208 5.85549 11.7015 5.92896 11.8364 6.06025L10.1619 7.77959ZM11.3326 8.25549C11.77 8.25549 12.19 8.08473 12.5034 7.77959L10.8289 6.06025C10.9637 5.92896 11.1444 5.85549 11.3326 5.85549L11.3326 8.25549ZM12.5032 7.7797C12.6616 7.62549 12.7875 7.44112 12.8735 7.23745L10.6623 6.30423C10.701 6.21255 10.7577 6.12956 10.829 6.06014L12.5032 7.7797ZM12.8735 7.23745C12.9594 7.03379 13.0037 6.81498 13.0037 6.59392L10.6037 6.59392C10.6037 6.49441 10.6236 6.39591 10.6623 6.30423L12.8735 7.23745ZM13.0037 6.59392C13.0037 6.37286 12.9594 6.15405 12.8735 5.95039L10.6623 6.88361C10.6236 6.79193 10.6037 6.69343 10.6037 6.59392L13.0037 6.59392ZM12.8735 5.95039C12.7875 5.74672 12.6616 5.56235 12.5032 5.40814L10.829 7.1277C10.7577 7.05829 10.701 6.97529 10.6623 6.88361L12.8735 5.95039Z" fill="#BCBDFF" mask="url(#path-1-inside-1_5903_10720)"/>
</svg>
