<svg width="16" height="18" viewBox="0 0 16 18" fill="none" xmlns="http://www.w3.org/2000/svg">
<path fill-rule="evenodd" clip-rule="evenodd" d="M3.99658 4.08656C3.99658 3.27831 4.2325 2.48822 4.67451 1.81619C5.11652 1.14416 5.74476 0.620371 6.47979 0.311069C7.21483 0.00176686 8.02364 -0.0791607 8.80394 0.0785201C9.58425 0.236201 10.301 0.625408 10.8636 1.19692C11.4261 1.76844 11.8093 2.49659 11.9645 3.28931C12.1197 4.08202 12.04 4.90369 11.7356 5.65042C11.4311 6.39714 10.9155 7.03537 10.254 7.48441C9.59249 7.93344 8.81477 8.17312 8.01917 8.17312C6.95232 8.17312 5.92915 7.74257 5.17477 6.97619C4.42039 6.20981 3.99658 5.17038 3.99658 4.08656Z" fill="url(#paint0_linear_5810_3251)"/>
<path fill-rule="evenodd" clip-rule="evenodd" d="M4.76699 10.4879H11.2503C11.4408 10.4835 11.6315 10.4896 11.8215 10.5061C12.3493 10.5587 12.8565 10.7411 13.2994 11.0374C13.7422 11.3338 14.1074 11.7352 14.3634 12.2071C14.4507 12.3781 14.5294 12.5537 14.599 12.733V12.7656L14.6311 12.8345C14.7893 13.1781 14.9218 13.5333 15.0274 13.8972C15.1343 14.339 15.1505 14.7984 15.0749 15.2468C14.9993 15.6952 14.8336 16.123 14.5881 16.5035C14.3425 16.8839 14.0224 17.2089 13.6478 17.4581C13.2732 17.7073 12.852 17.8755 12.4105 17.952C12.0396 17.9937 11.6661 18.0083 11.2931 17.9955H4.72415C4.35113 18.0083 3.97769 17.9937 3.60672 17.952C3.16369 17.8777 2.74055 17.7111 2.36385 17.4628C1.98715 17.2146 1.66502 16.8899 1.41764 16.5092C1.17026 16.1285 1.00299 15.6999 0.926302 15.2505C0.849616 14.801 0.865174 14.3403 0.972001 13.8972C1.0792 13.5334 1.21285 13.1782 1.37185 12.8345L1.40398 12.7656V12.733C1.50037 12.5045 1.5682 12.3485 1.64318 12.2071C1.89965 11.7334 2.26638 11.3307 2.71134 11.0342C3.1563 10.7377 3.66595 10.5564 4.19578 10.5061C4.38572 10.4894 4.57641 10.4834 4.76699 10.4879Z" fill="url(#paint1_linear_5810_3251)"/>
<defs>
<linearGradient id="paint0_linear_5810_3251" x1="11.9999" y1="-0.500003" x2="0.999876" y2="16.5" gradientUnits="userSpaceOnUse">
<stop stop-color="#4839C3"/>
<stop offset="1" stop-color="#3CE682"/>
</linearGradient>
<linearGradient id="paint1_linear_5810_3251" x1="14" y1="4.49999" x2="2" y2="17" gradientUnits="userSpaceOnUse">
<stop stop-color="#4839C3"/>
<stop offset="1" stop-color="#3CE682"/>
</linearGradient>
</defs>
</svg>
